<mxfile host="app.diagrams.net" modified="2021-03-16T06:54:09.311Z" agent="5.0 (Macintosh; Intel Mac OS X 10_15_7) AppleWebKit/537.36 (KHTML, like Gecko) Chrome/89.0.4389.82 Safari/537.36" etag="-FZwx_h5YLgtoqIHFrbo" version="14.2.7" type="github" pages="4">
  <diagram id="RoPL6QxB63FCWKYHr7D6" name="base">
    <mxGraphModel dx="894" dy="480" grid="1" gridSize="10" guides="1" tooltips="1" connect="1" arrows="1" fold="1" page="1" pageScale="1" pageWidth="827" pageHeight="1169" math="0" shadow="0">
      <root>
        <mxCell id="0" />
        <mxCell id="1" parent="0" />
        <mxCell id="lMNDnLg550LMzFXiZTYM-1" value="" style="rounded=1;whiteSpace=wrap;html=1;" parent="1" vertex="1">
          <mxGeometry x="95" y="90" width="330" height="310" as="geometry" />
        </mxCell>
        <mxCell id="lMNDnLg550LMzFXiZTYM-3" value="" style="rounded=1;whiteSpace=wrap;html=1;" parent="1" vertex="1">
          <mxGeometry x="120" y="320" width="30" height="20" as="geometry" />
        </mxCell>
        <mxCell id="lMNDnLg550LMzFXiZTYM-9" value="" style="rounded=1;whiteSpace=wrap;html=1;" parent="1" vertex="1">
          <mxGeometry x="160" y="320" width="30" height="20" as="geometry" />
        </mxCell>
        <mxCell id="lMNDnLg550LMzFXiZTYM-18" value="" style="rounded=1;whiteSpace=wrap;html=1;" parent="1" vertex="1">
          <mxGeometry x="220" y="320" width="30" height="20" as="geometry" />
        </mxCell>
        <mxCell id="lMNDnLg550LMzFXiZTYM-19" value="" style="rounded=1;whiteSpace=wrap;html=1;" parent="1" vertex="1">
          <mxGeometry x="260" y="320" width="30" height="20" as="geometry" />
        </mxCell>
        <mxCell id="lMNDnLg550LMzFXiZTYM-20" value="" style="rounded=1;whiteSpace=wrap;html=1;" parent="1" vertex="1">
          <mxGeometry x="300" y="320" width="30" height="20" as="geometry" />
        </mxCell>
        <mxCell id="lMNDnLg550LMzFXiZTYM-21" value="" style="rounded=1;whiteSpace=wrap;html=1;" parent="1" vertex="1">
          <mxGeometry x="370" y="320" width="30" height="20" as="geometry" />
        </mxCell>
        <mxCell id="lMNDnLg550LMzFXiZTYM-22" value="..." style="text;html=1;strokeColor=none;fillColor=none;align=center;verticalAlign=middle;whiteSpace=wrap;rounded=0;" parent="1" vertex="1">
          <mxGeometry x="185" y="320" width="40" height="20" as="geometry" />
        </mxCell>
        <mxCell id="lMNDnLg550LMzFXiZTYM-23" value="..." style="text;html=1;strokeColor=none;fillColor=none;align=center;verticalAlign=middle;whiteSpace=wrap;rounded=0;" parent="1" vertex="1">
          <mxGeometry x="330" y="320" width="40" height="20" as="geometry" />
        </mxCell>
        <mxCell id="lMNDnLg550LMzFXiZTYM-27" value="" style="shape=flexArrow;endArrow=classic;html=1;width=6;endSize=7.67;" parent="1" edge="1">
          <mxGeometry width="50" height="50" relative="1" as="geometry">
            <mxPoint x="134.5" y="320" as="sourcePoint" />
            <mxPoint x="134.5" y="280" as="targetPoint" />
          </mxGeometry>
        </mxCell>
        <mxCell id="lMNDnLg550LMzFXiZTYM-28" value="" style="shape=flexArrow;endArrow=classic;html=1;width=6;endSize=7.67;" parent="1" edge="1">
          <mxGeometry width="50" height="50" relative="1" as="geometry">
            <mxPoint x="174.5" y="320" as="sourcePoint" />
            <mxPoint x="174.5" y="280" as="targetPoint" />
          </mxGeometry>
        </mxCell>
        <mxCell id="lMNDnLg550LMzFXiZTYM-29" value="" style="shape=flexArrow;endArrow=classic;html=1;width=6;endSize=7.67;" parent="1" edge="1">
          <mxGeometry width="50" height="50" relative="1" as="geometry">
            <mxPoint x="234.5" y="320" as="sourcePoint" />
            <mxPoint x="234.5" y="280" as="targetPoint" />
          </mxGeometry>
        </mxCell>
        <mxCell id="lMNDnLg550LMzFXiZTYM-30" value="" style="shape=flexArrow;endArrow=classic;html=1;width=6;endSize=7.67;" parent="1" edge="1">
          <mxGeometry width="50" height="50" relative="1" as="geometry">
            <mxPoint x="274.5" y="320" as="sourcePoint" />
            <mxPoint x="274.5" y="280" as="targetPoint" />
          </mxGeometry>
        </mxCell>
        <mxCell id="lMNDnLg550LMzFXiZTYM-31" value="" style="shape=flexArrow;endArrow=classic;html=1;width=6;endSize=7.67;" parent="1" edge="1">
          <mxGeometry width="50" height="50" relative="1" as="geometry">
            <mxPoint x="314.5" y="320" as="sourcePoint" />
            <mxPoint x="314.5" y="280" as="targetPoint" />
          </mxGeometry>
        </mxCell>
        <mxCell id="lMNDnLg550LMzFXiZTYM-32" value="" style="shape=flexArrow;endArrow=classic;html=1;width=6;endSize=7.67;" parent="1" edge="1">
          <mxGeometry width="50" height="50" relative="1" as="geometry">
            <mxPoint x="384.5" y="320" as="sourcePoint" />
            <mxPoint x="384.5" y="280" as="targetPoint" />
          </mxGeometry>
        </mxCell>
        <mxCell id="lMNDnLg550LMzFXiZTYM-49" value="" style="shape=flexArrow;endArrow=classic;html=1;width=6;endSize=7.67;" parent="1" edge="1">
          <mxGeometry width="50" height="50" relative="1" as="geometry">
            <mxPoint x="347" y="160" as="sourcePoint" />
            <mxPoint x="347" y="120" as="targetPoint" />
          </mxGeometry>
        </mxCell>
        <mxCell id="lMNDnLg550LMzFXiZTYM-50" value="" style="shape=flexArrow;endArrow=classic;html=1;width=6;endSize=7.67;" parent="1" edge="1">
          <mxGeometry width="50" height="50" relative="1" as="geometry">
            <mxPoint x="240" y="160" as="sourcePoint" />
            <mxPoint x="240" y="120" as="targetPoint" />
          </mxGeometry>
        </mxCell>
        <mxCell id="lMNDnLg550LMzFXiZTYM-53" value="" style="shape=flexArrow;endArrow=classic;html=1;width=6;endSize=7.67;" parent="1" edge="1">
          <mxGeometry width="50" height="50" relative="1" as="geometry">
            <mxPoint x="134.5" y="160" as="sourcePoint" />
            <mxPoint x="134.5" y="120" as="targetPoint" />
          </mxGeometry>
        </mxCell>
        <mxCell id="lMNDnLg550LMzFXiZTYM-54" value="" style="rounded=1;whiteSpace=wrap;html=1;" parent="1" vertex="1">
          <mxGeometry x="80" y="650" width="330" height="310" as="geometry" />
        </mxCell>
        <mxCell id="lMNDnLg550LMzFXiZTYM-55" value="" style="rounded=1;whiteSpace=wrap;html=1;" parent="1" vertex="1">
          <mxGeometry x="100" y="900" width="30" height="20" as="geometry" />
        </mxCell>
        <mxCell id="lMNDnLg550LMzFXiZTYM-56" value="" style="rounded=1;whiteSpace=wrap;html=1;" parent="1" vertex="1">
          <mxGeometry x="140" y="900" width="30" height="20" as="geometry" />
        </mxCell>
        <mxCell id="lMNDnLg550LMzFXiZTYM-57" value="" style="rounded=1;whiteSpace=wrap;html=1;" parent="1" vertex="1">
          <mxGeometry x="200" y="900" width="30" height="20" as="geometry" />
        </mxCell>
        <mxCell id="lMNDnLg550LMzFXiZTYM-58" value="" style="rounded=1;whiteSpace=wrap;html=1;" parent="1" vertex="1">
          <mxGeometry x="240" y="900" width="30" height="20" as="geometry" />
        </mxCell>
        <mxCell id="lMNDnLg550LMzFXiZTYM-59" value="" style="rounded=1;whiteSpace=wrap;html=1;" parent="1" vertex="1">
          <mxGeometry x="280" y="900" width="30" height="20" as="geometry" />
        </mxCell>
        <mxCell id="lMNDnLg550LMzFXiZTYM-60" value="" style="rounded=1;whiteSpace=wrap;html=1;" parent="1" vertex="1">
          <mxGeometry x="350" y="900" width="30" height="20" as="geometry" />
        </mxCell>
        <mxCell id="lMNDnLg550LMzFXiZTYM-61" value="..." style="text;html=1;strokeColor=none;fillColor=none;align=center;verticalAlign=middle;whiteSpace=wrap;rounded=0;" parent="1" vertex="1">
          <mxGeometry x="165" y="900" width="40" height="20" as="geometry" />
        </mxCell>
        <mxCell id="lMNDnLg550LMzFXiZTYM-62" value="..." style="text;html=1;strokeColor=none;fillColor=none;align=center;verticalAlign=middle;whiteSpace=wrap;rounded=0;" parent="1" vertex="1">
          <mxGeometry x="310" y="900" width="40" height="20" as="geometry" />
        </mxCell>
        <mxCell id="lMNDnLg550LMzFXiZTYM-63" value="" style="rounded=0;whiteSpace=wrap;html=1;" parent="1" vertex="1">
          <mxGeometry x="100" y="740" width="280" height="120" as="geometry" />
        </mxCell>
        <mxCell id="lMNDnLg550LMzFXiZTYM-64" value="" style="shape=flexArrow;endArrow=classic;html=1;width=6;endSize=7.67;" parent="1" edge="1">
          <mxGeometry width="50" height="50" relative="1" as="geometry">
            <mxPoint x="114.5" y="900" as="sourcePoint" />
            <mxPoint x="114.5" y="860" as="targetPoint" />
          </mxGeometry>
        </mxCell>
        <mxCell id="lMNDnLg550LMzFXiZTYM-65" value="" style="shape=flexArrow;endArrow=classic;html=1;width=6;endSize=7.67;" parent="1" edge="1">
          <mxGeometry width="50" height="50" relative="1" as="geometry">
            <mxPoint x="154.5" y="900" as="sourcePoint" />
            <mxPoint x="154.5" y="860" as="targetPoint" />
          </mxGeometry>
        </mxCell>
        <mxCell id="lMNDnLg550LMzFXiZTYM-66" value="" style="shape=flexArrow;endArrow=classic;html=1;width=6;endSize=7.67;" parent="1" edge="1">
          <mxGeometry width="50" height="50" relative="1" as="geometry">
            <mxPoint x="214.5" y="900" as="sourcePoint" />
            <mxPoint x="214.5" y="860" as="targetPoint" />
          </mxGeometry>
        </mxCell>
        <mxCell id="lMNDnLg550LMzFXiZTYM-67" value="" style="shape=flexArrow;endArrow=classic;html=1;width=6;endSize=7.67;" parent="1" edge="1">
          <mxGeometry width="50" height="50" relative="1" as="geometry">
            <mxPoint x="254.5" y="900" as="sourcePoint" />
            <mxPoint x="254.5" y="860" as="targetPoint" />
          </mxGeometry>
        </mxCell>
        <mxCell id="lMNDnLg550LMzFXiZTYM-68" value="" style="shape=flexArrow;endArrow=classic;html=1;width=6;endSize=7.67;" parent="1" edge="1">
          <mxGeometry width="50" height="50" relative="1" as="geometry">
            <mxPoint x="294.5" y="900" as="sourcePoint" />
            <mxPoint x="294.5" y="860" as="targetPoint" />
          </mxGeometry>
        </mxCell>
        <mxCell id="lMNDnLg550LMzFXiZTYM-69" value="" style="shape=flexArrow;endArrow=classic;html=1;width=6;endSize=7.67;" parent="1" edge="1">
          <mxGeometry width="50" height="50" relative="1" as="geometry">
            <mxPoint x="364.5" y="900" as="sourcePoint" />
            <mxPoint x="364.5" y="860" as="targetPoint" />
          </mxGeometry>
        </mxCell>
        <mxCell id="lMNDnLg550LMzFXiZTYM-70" value="" style="rounded=1;whiteSpace=wrap;html=1;" parent="1" vertex="1">
          <mxGeometry x="100" y="830" width="30" height="20" as="geometry" />
        </mxCell>
        <mxCell id="lMNDnLg550LMzFXiZTYM-71" value="" style="rounded=1;whiteSpace=wrap;html=1;" parent="1" vertex="1">
          <mxGeometry x="140" y="830" width="30" height="20" as="geometry" />
        </mxCell>
        <mxCell id="lMNDnLg550LMzFXiZTYM-72" value="" style="rounded=1;whiteSpace=wrap;html=1;" parent="1" vertex="1">
          <mxGeometry x="200" y="830" width="30" height="20" as="geometry" />
        </mxCell>
        <mxCell id="lMNDnLg550LMzFXiZTYM-73" value="" style="rounded=1;whiteSpace=wrap;html=1;" parent="1" vertex="1">
          <mxGeometry x="240" y="830" width="30" height="20" as="geometry" />
        </mxCell>
        <mxCell id="lMNDnLg550LMzFXiZTYM-74" value="" style="rounded=1;whiteSpace=wrap;html=1;" parent="1" vertex="1">
          <mxGeometry x="280" y="830" width="30" height="20" as="geometry" />
        </mxCell>
        <mxCell id="lMNDnLg550LMzFXiZTYM-75" value="" style="rounded=1;whiteSpace=wrap;html=1;" parent="1" vertex="1">
          <mxGeometry x="350" y="830" width="30" height="20" as="geometry" />
        </mxCell>
        <mxCell id="lMNDnLg550LMzFXiZTYM-76" value="..." style="text;html=1;strokeColor=none;fillColor=none;align=center;verticalAlign=middle;whiteSpace=wrap;rounded=0;" parent="1" vertex="1">
          <mxGeometry x="165" y="830" width="40" height="20" as="geometry" />
        </mxCell>
        <mxCell id="lMNDnLg550LMzFXiZTYM-77" value="..." style="text;html=1;strokeColor=none;fillColor=none;align=center;verticalAlign=middle;whiteSpace=wrap;rounded=0;" parent="1" vertex="1">
          <mxGeometry x="310" y="830" width="40" height="20" as="geometry" />
        </mxCell>
        <mxCell id="lMNDnLg550LMzFXiZTYM-78" value="" style="rounded=1;whiteSpace=wrap;html=1;" parent="1" vertex="1">
          <mxGeometry x="100" y="750" width="30" height="20" as="geometry" />
        </mxCell>
        <mxCell id="lMNDnLg550LMzFXiZTYM-79" value="" style="rounded=1;whiteSpace=wrap;html=1;" parent="1" vertex="1">
          <mxGeometry x="140" y="750" width="30" height="20" as="geometry" />
        </mxCell>
        <mxCell id="lMNDnLg550LMzFXiZTYM-80" value="" style="rounded=1;whiteSpace=wrap;html=1;" parent="1" vertex="1">
          <mxGeometry x="200" y="750" width="30" height="20" as="geometry" />
        </mxCell>
        <mxCell id="lMNDnLg550LMzFXiZTYM-81" value="" style="rounded=1;whiteSpace=wrap;html=1;" parent="1" vertex="1">
          <mxGeometry x="240" y="750" width="30" height="20" as="geometry" />
        </mxCell>
        <mxCell id="lMNDnLg550LMzFXiZTYM-82" value="" style="rounded=1;whiteSpace=wrap;html=1;" parent="1" vertex="1">
          <mxGeometry x="280" y="750" width="30" height="20" as="geometry" />
        </mxCell>
        <mxCell id="lMNDnLg550LMzFXiZTYM-83" value="" style="rounded=1;whiteSpace=wrap;html=1;" parent="1" vertex="1">
          <mxGeometry x="350" y="750" width="30" height="20" as="geometry" />
        </mxCell>
        <mxCell id="lMNDnLg550LMzFXiZTYM-84" value="..." style="text;html=1;strokeColor=none;fillColor=none;align=center;verticalAlign=middle;whiteSpace=wrap;rounded=0;" parent="1" vertex="1">
          <mxGeometry x="165" y="750" width="40" height="20" as="geometry" />
        </mxCell>
        <mxCell id="lMNDnLg550LMzFXiZTYM-85" value="..." style="text;html=1;strokeColor=none;fillColor=none;align=center;verticalAlign=middle;whiteSpace=wrap;rounded=0;" parent="1" vertex="1">
          <mxGeometry x="310" y="750" width="40" height="20" as="geometry" />
        </mxCell>
        <mxCell id="lMNDnLg550LMzFXiZTYM-86" value="" style="shape=flexArrow;endArrow=classic;html=1;width=6;endSize=7.67;" parent="1" edge="1">
          <mxGeometry width="50" height="50" relative="1" as="geometry">
            <mxPoint x="327" y="740" as="sourcePoint" />
            <mxPoint x="327" y="700" as="targetPoint" />
          </mxGeometry>
        </mxCell>
        <mxCell id="lMNDnLg550LMzFXiZTYM-87" value="" style="shape=flexArrow;endArrow=classic;html=1;width=6;endSize=7.67;" parent="1" edge="1">
          <mxGeometry width="50" height="50" relative="1" as="geometry">
            <mxPoint x="220" y="740" as="sourcePoint" />
            <mxPoint x="220" y="700" as="targetPoint" />
          </mxGeometry>
        </mxCell>
        <mxCell id="lMNDnLg550LMzFXiZTYM-88" value="" style="shape=flexArrow;endArrow=classic;html=1;width=6;endSize=7.67;" parent="1" edge="1">
          <mxGeometry width="50" height="50" relative="1" as="geometry">
            <mxPoint x="114.5" y="740" as="sourcePoint" />
            <mxPoint x="114.5" y="700" as="targetPoint" />
          </mxGeometry>
        </mxCell>
        <mxCell id="lMNDnLg550LMzFXiZTYM-89" value="" style="rounded=1;whiteSpace=wrap;html=1;" parent="1" vertex="1">
          <mxGeometry x="680" y="70" width="330" height="310" as="geometry" />
        </mxCell>
        <mxCell id="lMNDnLg550LMzFXiZTYM-90" value="" style="rounded=1;whiteSpace=wrap;html=1;" parent="1" vertex="1">
          <mxGeometry x="700" y="320" width="30" height="20" as="geometry" />
        </mxCell>
        <mxCell id="lMNDnLg550LMzFXiZTYM-91" value="" style="rounded=1;whiteSpace=wrap;html=1;" parent="1" vertex="1">
          <mxGeometry x="740" y="320" width="30" height="20" as="geometry" />
        </mxCell>
        <mxCell id="lMNDnLg550LMzFXiZTYM-92" value="" style="rounded=1;whiteSpace=wrap;html=1;" parent="1" vertex="1">
          <mxGeometry x="800" y="320" width="30" height="20" as="geometry" />
        </mxCell>
        <mxCell id="lMNDnLg550LMzFXiZTYM-93" value="" style="rounded=1;whiteSpace=wrap;html=1;" parent="1" vertex="1">
          <mxGeometry x="840" y="320" width="30" height="20" as="geometry" />
        </mxCell>
        <mxCell id="lMNDnLg550LMzFXiZTYM-94" value="" style="rounded=1;whiteSpace=wrap;html=1;" parent="1" vertex="1">
          <mxGeometry x="880" y="320" width="30" height="20" as="geometry" />
        </mxCell>
        <mxCell id="lMNDnLg550LMzFXiZTYM-95" value="" style="rounded=1;whiteSpace=wrap;html=1;" parent="1" vertex="1">
          <mxGeometry x="950" y="320" width="30" height="20" as="geometry" />
        </mxCell>
        <mxCell id="lMNDnLg550LMzFXiZTYM-96" value="..." style="text;html=1;strokeColor=none;fillColor=none;align=center;verticalAlign=middle;whiteSpace=wrap;rounded=0;" parent="1" vertex="1">
          <mxGeometry x="765" y="320" width="40" height="20" as="geometry" />
        </mxCell>
        <mxCell id="lMNDnLg550LMzFXiZTYM-97" value="..." style="text;html=1;strokeColor=none;fillColor=none;align=center;verticalAlign=middle;whiteSpace=wrap;rounded=0;" parent="1" vertex="1">
          <mxGeometry x="910" y="320" width="40" height="20" as="geometry" />
        </mxCell>
        <mxCell id="lMNDnLg550LMzFXiZTYM-98" value="" style="rounded=0;whiteSpace=wrap;html=1;" parent="1" vertex="1">
          <mxGeometry x="700" y="160" width="280" height="120" as="geometry" />
        </mxCell>
        <mxCell id="lMNDnLg550LMzFXiZTYM-99" value="" style="shape=flexArrow;endArrow=classic;html=1;width=6;endSize=7.67;" parent="1" edge="1">
          <mxGeometry width="50" height="50" relative="1" as="geometry">
            <mxPoint x="714.5" y="320" as="sourcePoint" />
            <mxPoint x="714.5" y="280" as="targetPoint" />
          </mxGeometry>
        </mxCell>
        <mxCell id="lMNDnLg550LMzFXiZTYM-100" value="" style="shape=flexArrow;endArrow=classic;html=1;width=6;endSize=7.67;" parent="1" edge="1">
          <mxGeometry width="50" height="50" relative="1" as="geometry">
            <mxPoint x="754.5" y="320" as="sourcePoint" />
            <mxPoint x="754.5" y="280" as="targetPoint" />
          </mxGeometry>
        </mxCell>
        <mxCell id="lMNDnLg550LMzFXiZTYM-101" value="" style="shape=flexArrow;endArrow=classic;html=1;width=6;endSize=7.67;" parent="1" edge="1">
          <mxGeometry width="50" height="50" relative="1" as="geometry">
            <mxPoint x="814.5" y="320" as="sourcePoint" />
            <mxPoint x="814.5" y="280" as="targetPoint" />
          </mxGeometry>
        </mxCell>
        <mxCell id="lMNDnLg550LMzFXiZTYM-102" value="" style="shape=flexArrow;endArrow=classic;html=1;width=6;endSize=7.67;" parent="1" edge="1">
          <mxGeometry width="50" height="50" relative="1" as="geometry">
            <mxPoint x="854.5" y="320" as="sourcePoint" />
            <mxPoint x="854.5" y="280" as="targetPoint" />
          </mxGeometry>
        </mxCell>
        <mxCell id="lMNDnLg550LMzFXiZTYM-103" value="" style="shape=flexArrow;endArrow=classic;html=1;width=6;endSize=7.67;" parent="1" edge="1">
          <mxGeometry width="50" height="50" relative="1" as="geometry">
            <mxPoint x="894.5" y="320" as="sourcePoint" />
            <mxPoint x="894.5" y="280" as="targetPoint" />
          </mxGeometry>
        </mxCell>
        <mxCell id="lMNDnLg550LMzFXiZTYM-104" value="" style="shape=flexArrow;endArrow=classic;html=1;width=6;endSize=7.67;" parent="1" edge="1">
          <mxGeometry width="50" height="50" relative="1" as="geometry">
            <mxPoint x="964.5" y="320" as="sourcePoint" />
            <mxPoint x="964.5" y="280" as="targetPoint" />
          </mxGeometry>
        </mxCell>
        <mxCell id="lMNDnLg550LMzFXiZTYM-105" value="" style="rounded=1;whiteSpace=wrap;html=1;" parent="1" vertex="1">
          <mxGeometry x="700" y="250" width="30" height="20" as="geometry" />
        </mxCell>
        <mxCell id="lMNDnLg550LMzFXiZTYM-106" value="" style="rounded=1;whiteSpace=wrap;html=1;" parent="1" vertex="1">
          <mxGeometry x="740" y="250" width="30" height="20" as="geometry" />
        </mxCell>
        <mxCell id="lMNDnLg550LMzFXiZTYM-107" value="" style="rounded=1;whiteSpace=wrap;html=1;" parent="1" vertex="1">
          <mxGeometry x="800" y="250" width="30" height="20" as="geometry" />
        </mxCell>
        <mxCell id="lMNDnLg550LMzFXiZTYM-108" value="" style="rounded=1;whiteSpace=wrap;html=1;" parent="1" vertex="1">
          <mxGeometry x="840" y="250" width="30" height="20" as="geometry" />
        </mxCell>
        <mxCell id="lMNDnLg550LMzFXiZTYM-109" value="" style="rounded=1;whiteSpace=wrap;html=1;" parent="1" vertex="1">
          <mxGeometry x="880" y="250" width="30" height="20" as="geometry" />
        </mxCell>
        <mxCell id="lMNDnLg550LMzFXiZTYM-110" value="" style="rounded=1;whiteSpace=wrap;html=1;" parent="1" vertex="1">
          <mxGeometry x="950" y="250" width="30" height="20" as="geometry" />
        </mxCell>
        <mxCell id="lMNDnLg550LMzFXiZTYM-111" value="..." style="text;html=1;strokeColor=none;fillColor=none;align=center;verticalAlign=middle;whiteSpace=wrap;rounded=0;" parent="1" vertex="1">
          <mxGeometry x="765" y="250" width="40" height="20" as="geometry" />
        </mxCell>
        <mxCell id="lMNDnLg550LMzFXiZTYM-112" value="..." style="text;html=1;strokeColor=none;fillColor=none;align=center;verticalAlign=middle;whiteSpace=wrap;rounded=0;" parent="1" vertex="1">
          <mxGeometry x="910" y="250" width="40" height="20" as="geometry" />
        </mxCell>
        <mxCell id="lMNDnLg550LMzFXiZTYM-113" value="" style="rounded=1;whiteSpace=wrap;html=1;" parent="1" vertex="1">
          <mxGeometry x="700" y="170" width="30" height="20" as="geometry" />
        </mxCell>
        <mxCell id="lMNDnLg550LMzFXiZTYM-114" value="" style="rounded=1;whiteSpace=wrap;html=1;" parent="1" vertex="1">
          <mxGeometry x="740" y="170" width="30" height="20" as="geometry" />
        </mxCell>
        <mxCell id="lMNDnLg550LMzFXiZTYM-115" value="" style="rounded=1;whiteSpace=wrap;html=1;" parent="1" vertex="1">
          <mxGeometry x="800" y="170" width="30" height="20" as="geometry" />
        </mxCell>
        <mxCell id="lMNDnLg550LMzFXiZTYM-116" value="" style="rounded=1;whiteSpace=wrap;html=1;" parent="1" vertex="1">
          <mxGeometry x="840" y="170" width="30" height="20" as="geometry" />
        </mxCell>
        <mxCell id="lMNDnLg550LMzFXiZTYM-117" value="" style="rounded=1;whiteSpace=wrap;html=1;" parent="1" vertex="1">
          <mxGeometry x="880" y="170" width="30" height="20" as="geometry" />
        </mxCell>
        <mxCell id="lMNDnLg550LMzFXiZTYM-118" value="" style="rounded=1;whiteSpace=wrap;html=1;" parent="1" vertex="1">
          <mxGeometry x="950" y="170" width="30" height="20" as="geometry" />
        </mxCell>
        <mxCell id="lMNDnLg550LMzFXiZTYM-119" value="..." style="text;html=1;strokeColor=none;fillColor=none;align=center;verticalAlign=middle;whiteSpace=wrap;rounded=0;" parent="1" vertex="1">
          <mxGeometry x="765" y="170" width="40" height="20" as="geometry" />
        </mxCell>
        <mxCell id="lMNDnLg550LMzFXiZTYM-120" value="..." style="text;html=1;strokeColor=none;fillColor=none;align=center;verticalAlign=middle;whiteSpace=wrap;rounded=0;" parent="1" vertex="1">
          <mxGeometry x="910" y="170" width="40" height="20" as="geometry" />
        </mxCell>
        <mxCell id="lMNDnLg550LMzFXiZTYM-121" value="" style="shape=flexArrow;endArrow=classic;html=1;width=6;endSize=7.67;" parent="1" edge="1">
          <mxGeometry width="50" height="50" relative="1" as="geometry">
            <mxPoint x="927" y="160" as="sourcePoint" />
            <mxPoint x="927" y="120" as="targetPoint" />
          </mxGeometry>
        </mxCell>
        <mxCell id="lMNDnLg550LMzFXiZTYM-122" value="" style="shape=flexArrow;endArrow=classic;html=1;width=6;endSize=7.67;" parent="1" edge="1">
          <mxGeometry width="50" height="50" relative="1" as="geometry">
            <mxPoint x="820" y="160" as="sourcePoint" />
            <mxPoint x="820" y="120" as="targetPoint" />
          </mxGeometry>
        </mxCell>
        <mxCell id="lMNDnLg550LMzFXiZTYM-123" value="" style="shape=flexArrow;endArrow=classic;html=1;width=6;endSize=7.67;" parent="1" edge="1">
          <mxGeometry width="50" height="50" relative="1" as="geometry">
            <mxPoint x="714.5" y="160" as="sourcePoint" />
            <mxPoint x="714.5" y="120" as="targetPoint" />
          </mxGeometry>
        </mxCell>
        <mxCell id="lMNDnLg550LMzFXiZTYM-126" value="" style="rounded=0;whiteSpace=wrap;html=1;" parent="1" vertex="1">
          <mxGeometry x="575" y="660" width="280" height="120" as="geometry" />
        </mxCell>
        <mxCell id="lMNDnLg550LMzFXiZTYM-127" value="" style="rounded=1;whiteSpace=wrap;html=1;" parent="1" vertex="1">
          <mxGeometry x="575" y="750" width="30" height="20" as="geometry" />
        </mxCell>
        <mxCell id="lMNDnLg550LMzFXiZTYM-128" value="" style="rounded=1;whiteSpace=wrap;html=1;" parent="1" vertex="1">
          <mxGeometry x="615" y="750" width="30" height="20" as="geometry" />
        </mxCell>
        <mxCell id="lMNDnLg550LMzFXiZTYM-129" value="" style="rounded=1;whiteSpace=wrap;html=1;" parent="1" vertex="1">
          <mxGeometry x="675" y="750" width="30" height="20" as="geometry" />
        </mxCell>
        <mxCell id="lMNDnLg550LMzFXiZTYM-130" value="" style="rounded=1;whiteSpace=wrap;html=1;" parent="1" vertex="1">
          <mxGeometry x="715" y="750" width="30" height="20" as="geometry" />
        </mxCell>
        <mxCell id="lMNDnLg550LMzFXiZTYM-131" value="" style="rounded=1;whiteSpace=wrap;html=1;" parent="1" vertex="1">
          <mxGeometry x="755" y="750" width="30" height="20" as="geometry" />
        </mxCell>
        <mxCell id="lMNDnLg550LMzFXiZTYM-132" value="" style="rounded=1;whiteSpace=wrap;html=1;" parent="1" vertex="1">
          <mxGeometry x="825" y="750" width="30" height="20" as="geometry" />
        </mxCell>
        <mxCell id="lMNDnLg550LMzFXiZTYM-133" value="..." style="text;html=1;strokeColor=none;fillColor=none;align=center;verticalAlign=middle;whiteSpace=wrap;rounded=0;" parent="1" vertex="1">
          <mxGeometry x="640" y="750" width="40" height="20" as="geometry" />
        </mxCell>
        <mxCell id="lMNDnLg550LMzFXiZTYM-134" value="..." style="text;html=1;strokeColor=none;fillColor=none;align=center;verticalAlign=middle;whiteSpace=wrap;rounded=0;" parent="1" vertex="1">
          <mxGeometry x="785" y="750" width="50" height="20" as="geometry" />
        </mxCell>
        <mxCell id="lMNDnLg550LMzFXiZTYM-135" value="" style="rounded=1;whiteSpace=wrap;html=1;" parent="1" vertex="1">
          <mxGeometry x="575" y="670" width="30" height="20" as="geometry" />
        </mxCell>
        <mxCell id="lMNDnLg550LMzFXiZTYM-136" value="" style="rounded=1;whiteSpace=wrap;html=1;" parent="1" vertex="1">
          <mxGeometry x="615" y="670" width="30" height="20" as="geometry" />
        </mxCell>
        <mxCell id="lMNDnLg550LMzFXiZTYM-137" value="" style="rounded=1;whiteSpace=wrap;html=1;" parent="1" vertex="1">
          <mxGeometry x="675" y="670" width="30" height="20" as="geometry" />
        </mxCell>
        <mxCell id="lMNDnLg550LMzFXiZTYM-138" value="" style="rounded=1;whiteSpace=wrap;html=1;" parent="1" vertex="1">
          <mxGeometry x="715" y="670" width="30" height="20" as="geometry" />
        </mxCell>
        <mxCell id="lMNDnLg550LMzFXiZTYM-139" value="" style="rounded=1;whiteSpace=wrap;html=1;" parent="1" vertex="1">
          <mxGeometry x="755" y="670" width="30" height="20" as="geometry" />
        </mxCell>
        <mxCell id="lMNDnLg550LMzFXiZTYM-140" value="" style="rounded=1;whiteSpace=wrap;html=1;" parent="1" vertex="1">
          <mxGeometry x="825" y="670" width="30" height="20" as="geometry" />
        </mxCell>
        <mxCell id="lMNDnLg550LMzFXiZTYM-141" value="..." style="text;html=1;strokeColor=none;fillColor=none;align=center;verticalAlign=middle;whiteSpace=wrap;rounded=0;" parent="1" vertex="1">
          <mxGeometry x="640" y="670" width="40" height="20" as="geometry" />
        </mxCell>
        <mxCell id="lMNDnLg550LMzFXiZTYM-142" value="..." style="text;html=1;strokeColor=none;fillColor=none;align=center;verticalAlign=middle;whiteSpace=wrap;rounded=0;" parent="1" vertex="1">
          <mxGeometry x="785" y="670" width="40" height="20" as="geometry" />
        </mxCell>
        <mxCell id="lMNDnLg550LMzFXiZTYM-143" value="&lt;font style=&quot;font-size: 13px&quot;&gt;BERT&lt;/font&gt;" style="text;html=1;strokeColor=none;fillColor=none;align=center;verticalAlign=middle;whiteSpace=wrap;rounded=0;" parent="1" vertex="1">
          <mxGeometry x="690" y="710" width="40" height="20" as="geometry" />
        </mxCell>
        <mxCell id="lMNDnLg550LMzFXiZTYM-148" value="" style="ellipse;whiteSpace=wrap;html=1;dashed=1;dashPattern=1 1;" parent="1" vertex="1">
          <mxGeometry x="580" y="700" width="20" height="10" as="geometry" />
        </mxCell>
        <mxCell id="lMNDnLg550LMzFXiZTYM-149" value="" style="ellipse;whiteSpace=wrap;html=1;dashed=1;dashPattern=1 1;" parent="1" vertex="1">
          <mxGeometry x="680" y="700" width="20" height="10" as="geometry" />
        </mxCell>
        <mxCell id="lMNDnLg550LMzFXiZTYM-150" value="" style="ellipse;whiteSpace=wrap;html=1;dashed=1;dashPattern=1 1;" parent="1" vertex="1">
          <mxGeometry x="620" y="700" width="20" height="10" as="geometry" />
        </mxCell>
        <mxCell id="lMNDnLg550LMzFXiZTYM-154" value="" style="ellipse;whiteSpace=wrap;html=1;dashed=1;dashPattern=1 1;" parent="1" vertex="1">
          <mxGeometry x="580" y="730" width="20" height="10" as="geometry" />
        </mxCell>
        <mxCell id="lMNDnLg550LMzFXiZTYM-155" value="" style="ellipse;whiteSpace=wrap;html=1;dashed=1;dashPattern=1 1;" parent="1" vertex="1">
          <mxGeometry x="830" y="700" width="20" height="10" as="geometry" />
        </mxCell>
        <mxCell id="lMNDnLg550LMzFXiZTYM-157" value="" style="ellipse;whiteSpace=wrap;html=1;dashed=1;dashPattern=1 1;" parent="1" vertex="1">
          <mxGeometry x="620" y="730" width="20" height="10" as="geometry" />
        </mxCell>
        <mxCell id="lMNDnLg550LMzFXiZTYM-158" value="" style="ellipse;whiteSpace=wrap;html=1;dashed=1;dashPattern=1 1;" parent="1" vertex="1">
          <mxGeometry x="830" y="730" width="20" height="10" as="geometry" />
        </mxCell>
        <mxCell id="lMNDnLg550LMzFXiZTYM-159" value="" style="ellipse;whiteSpace=wrap;html=1;dashed=1;dashPattern=1 1;" parent="1" vertex="1">
          <mxGeometry x="680" y="730" width="20" height="10" as="geometry" />
        </mxCell>
        <mxCell id="lMNDnLg550LMzFXiZTYM-160" value="" style="endArrow=none;dashed=1;html=1;dashPattern=1 1;strokeWidth=1;entryX=0.5;entryY=1;entryDx=0;entryDy=0;exitX=0.5;exitY=0;exitDx=0;exitDy=0;" parent="1" source="lMNDnLg550LMzFXiZTYM-154" target="lMNDnLg550LMzFXiZTYM-150" edge="1">
          <mxGeometry width="50" height="50" relative="1" as="geometry">
            <mxPoint x="584" y="730" as="sourcePoint" />
            <mxPoint x="634" y="680" as="targetPoint" />
          </mxGeometry>
        </mxCell>
        <mxCell id="lMNDnLg550LMzFXiZTYM-161" value="" style="endArrow=none;dashed=1;html=1;dashPattern=1 1;strokeWidth=1;entryX=0.5;entryY=0;entryDx=0;entryDy=0;exitX=0.5;exitY=1;exitDx=0;exitDy=0;" parent="1" source="lMNDnLg550LMzFXiZTYM-148" target="lMNDnLg550LMzFXiZTYM-157" edge="1">
          <mxGeometry width="50" height="50" relative="1" as="geometry">
            <mxPoint x="600" y="740" as="sourcePoint" />
            <mxPoint x="640" y="720" as="targetPoint" />
          </mxGeometry>
        </mxCell>
        <mxCell id="lMNDnLg550LMzFXiZTYM-162" value="" style="endArrow=none;dashed=1;html=1;dashPattern=1 1;strokeWidth=1;entryX=0.5;entryY=1;entryDx=0;entryDy=0;" parent="1" target="lMNDnLg550LMzFXiZTYM-149" edge="1">
          <mxGeometry width="50" height="50" relative="1" as="geometry">
            <mxPoint x="595" y="730" as="sourcePoint" />
            <mxPoint x="650" y="730" as="targetPoint" />
          </mxGeometry>
        </mxCell>
        <mxCell id="lMNDnLg550LMzFXiZTYM-163" value="" style="endArrow=none;dashed=1;html=1;dashPattern=1 1;strokeWidth=1;entryX=0.5;entryY=1;entryDx=0;entryDy=0;" parent="1" target="lMNDnLg550LMzFXiZTYM-155" edge="1">
          <mxGeometry width="50" height="50" relative="1" as="geometry">
            <mxPoint x="595" y="730" as="sourcePoint" />
            <mxPoint x="660" y="740" as="targetPoint" />
          </mxGeometry>
        </mxCell>
        <mxCell id="lMNDnLg550LMzFXiZTYM-164" value="" style="endArrow=none;dashed=1;html=1;dashPattern=1 1;strokeWidth=1;entryX=0.5;entryY=1;entryDx=0;entryDy=0;" parent="1" target="lMNDnLg550LMzFXiZTYM-150" edge="1">
          <mxGeometry width="50" height="50" relative="1" as="geometry">
            <mxPoint x="630" y="730" as="sourcePoint" />
            <mxPoint x="670" y="750" as="targetPoint" />
          </mxGeometry>
        </mxCell>
        <mxCell id="lMNDnLg550LMzFXiZTYM-165" value="" style="endArrow=none;dashed=1;html=1;dashPattern=1 1;strokeWidth=1;entryX=1;entryY=1;entryDx=0;entryDy=0;exitX=0.5;exitY=0;exitDx=0;exitDy=0;" parent="1" source="lMNDnLg550LMzFXiZTYM-157" target="lMNDnLg550LMzFXiZTYM-155" edge="1">
          <mxGeometry width="50" height="50" relative="1" as="geometry">
            <mxPoint x="640" y="780" as="sourcePoint" />
            <mxPoint x="680" y="760" as="targetPoint" />
          </mxGeometry>
        </mxCell>
        <mxCell id="lMNDnLg550LMzFXiZTYM-166" value="" style="endArrow=none;dashed=1;html=1;dashPattern=1 1;strokeWidth=1;entryX=0.5;entryY=1;entryDx=0;entryDy=0;" parent="1" target="lMNDnLg550LMzFXiZTYM-149" edge="1">
          <mxGeometry width="50" height="50" relative="1" as="geometry">
            <mxPoint x="635" y="730" as="sourcePoint" />
            <mxPoint x="690" y="770" as="targetPoint" />
          </mxGeometry>
        </mxCell>
        <mxCell id="lMNDnLg550LMzFXiZTYM-167" value="" style="endArrow=none;dashed=1;html=1;dashPattern=1 1;strokeWidth=1;exitX=0.5;exitY=0;exitDx=0;exitDy=0;" parent="1" source="lMNDnLg550LMzFXiZTYM-154" edge="1">
          <mxGeometry width="50" height="50" relative="1" as="geometry">
            <mxPoint x="660" y="800" as="sourcePoint" />
            <mxPoint x="590" y="710" as="targetPoint" />
          </mxGeometry>
        </mxCell>
        <mxCell id="lMNDnLg550LMzFXiZTYM-168" value="" style="endArrow=none;dashed=1;html=1;dashPattern=1 1;strokeWidth=1;exitX=0.5;exitY=0;exitDx=0;exitDy=0;" parent="1" source="lMNDnLg550LMzFXiZTYM-159" edge="1">
          <mxGeometry width="50" height="50" relative="1" as="geometry">
            <mxPoint x="670" y="810" as="sourcePoint" />
            <mxPoint x="595" y="710" as="targetPoint" />
          </mxGeometry>
        </mxCell>
        <mxCell id="lMNDnLg550LMzFXiZTYM-169" value="" style="endArrow=none;dashed=1;html=1;dashPattern=1 1;strokeWidth=1;entryX=0.5;entryY=1;entryDx=0;entryDy=0;exitX=0.5;exitY=0;exitDx=0;exitDy=0;" parent="1" source="lMNDnLg550LMzFXiZTYM-159" target="lMNDnLg550LMzFXiZTYM-150" edge="1">
          <mxGeometry width="50" height="50" relative="1" as="geometry">
            <mxPoint x="680" y="820" as="sourcePoint" />
            <mxPoint x="720" y="800" as="targetPoint" />
          </mxGeometry>
        </mxCell>
        <mxCell id="lMNDnLg550LMzFXiZTYM-170" value="" style="endArrow=none;dashed=1;html=1;dashPattern=1 1;strokeWidth=1;entryX=0;entryY=0;entryDx=0;entryDy=0;" parent="1" target="lMNDnLg550LMzFXiZTYM-143" edge="1">
          <mxGeometry width="50" height="50" relative="1" as="geometry">
            <mxPoint x="690" y="730" as="sourcePoint" />
            <mxPoint x="730" y="810" as="targetPoint" />
          </mxGeometry>
        </mxCell>
        <mxCell id="lMNDnLg550LMzFXiZTYM-171" value="" style="endArrow=none;dashed=1;html=1;dashPattern=1 1;strokeWidth=1;exitX=0.5;exitY=0;exitDx=0;exitDy=0;" parent="1" source="lMNDnLg550LMzFXiZTYM-159" edge="1">
          <mxGeometry width="50" height="50" relative="1" as="geometry">
            <mxPoint x="700" y="840" as="sourcePoint" />
            <mxPoint x="845" y="710" as="targetPoint" />
          </mxGeometry>
        </mxCell>
        <mxCell id="lMNDnLg550LMzFXiZTYM-172" value="" style="endArrow=none;dashed=1;html=1;dashPattern=1 1;strokeWidth=1;exitX=0.5;exitY=0;exitDx=0;exitDy=0;" parent="1" source="lMNDnLg550LMzFXiZTYM-158" edge="1">
          <mxGeometry width="50" height="50" relative="1" as="geometry">
            <mxPoint x="710" y="850" as="sourcePoint" />
            <mxPoint x="595" y="710" as="targetPoint" />
          </mxGeometry>
        </mxCell>
        <mxCell id="lMNDnLg550LMzFXiZTYM-173" value="" style="endArrow=none;dashed=1;html=1;dashPattern=1 1;strokeWidth=1;exitX=0.5;exitY=0;exitDx=0;exitDy=0;" parent="1" source="lMNDnLg550LMzFXiZTYM-158" edge="1">
          <mxGeometry width="50" height="50" relative="1" as="geometry">
            <mxPoint x="720" y="860" as="sourcePoint" />
            <mxPoint x="635" y="710" as="targetPoint" />
          </mxGeometry>
        </mxCell>
        <mxCell id="lMNDnLg550LMzFXiZTYM-174" value="" style="endArrow=none;dashed=1;html=1;dashPattern=1 1;strokeWidth=1;entryX=0.5;entryY=1;entryDx=0;entryDy=0;" parent="1" target="lMNDnLg550LMzFXiZTYM-149" edge="1">
          <mxGeometry width="50" height="50" relative="1" as="geometry">
            <mxPoint x="835" y="730" as="sourcePoint" />
            <mxPoint x="770" y="850" as="targetPoint" />
          </mxGeometry>
        </mxCell>
        <mxCell id="lMNDnLg550LMzFXiZTYM-176" value="" style="endArrow=none;dashed=1;html=1;dashPattern=1 1;strokeWidth=1;exitX=0.5;exitY=0;exitDx=0;exitDy=0;" parent="1" source="lMNDnLg550LMzFXiZTYM-158" edge="1">
          <mxGeometry width="50" height="50" relative="1" as="geometry">
            <mxPoint x="600" y="740" as="sourcePoint" />
            <mxPoint x="840" y="710" as="targetPoint" />
          </mxGeometry>
        </mxCell>
        <mxCell id="lMNDnLg550LMzFXiZTYM-182" value="" style="endArrow=none;dashed=1;html=1;dashPattern=1 1;strokeWidth=1;" parent="1" edge="1">
          <mxGeometry width="50" height="50" relative="1" as="geometry">
            <mxPoint x="555" y="840" as="sourcePoint" />
            <mxPoint x="575" y="890" as="targetPoint" />
          </mxGeometry>
        </mxCell>
        <mxCell id="lMNDnLg550LMzFXiZTYM-183" value="" style="endArrow=none;dashed=1;html=1;dashPattern=1 1;strokeWidth=1;entryX=0.5;entryY=0;entryDx=0;entryDy=0;exitX=0.5;exitY=1;exitDx=0;exitDy=0;" parent="1" source="lMNDnLg550LMzFXiZTYM-135" target="lMNDnLg550LMzFXiZTYM-148" edge="1">
          <mxGeometry width="50" height="50" relative="1" as="geometry">
            <mxPoint x="425" y="720" as="sourcePoint" />
            <mxPoint x="445" y="770" as="targetPoint" />
          </mxGeometry>
        </mxCell>
        <mxCell id="lMNDnLg550LMzFXiZTYM-184" value="" style="endArrow=none;dashed=1;html=1;dashPattern=1 1;strokeWidth=1;exitX=0.5;exitY=0;exitDx=0;exitDy=0;entryX=0.5;entryY=1;entryDx=0;entryDy=0;" parent="1" source="lMNDnLg550LMzFXiZTYM-150" target="lMNDnLg550LMzFXiZTYM-136" edge="1">
          <mxGeometry width="50" height="50" relative="1" as="geometry">
            <mxPoint x="435" y="730" as="sourcePoint" />
            <mxPoint x="455" y="780" as="targetPoint" />
          </mxGeometry>
        </mxCell>
        <mxCell id="lMNDnLg550LMzFXiZTYM-185" value="" style="endArrow=none;dashed=1;html=1;dashPattern=1 1;strokeWidth=1;entryX=0.5;entryY=0;entryDx=0;entryDy=0;exitX=0.5;exitY=1;exitDx=0;exitDy=0;" parent="1" source="lMNDnLg550LMzFXiZTYM-137" target="lMNDnLg550LMzFXiZTYM-149" edge="1">
          <mxGeometry width="50" height="50" relative="1" as="geometry">
            <mxPoint x="445" y="740" as="sourcePoint" />
            <mxPoint x="465" y="790" as="targetPoint" />
          </mxGeometry>
        </mxCell>
        <mxCell id="lMNDnLg550LMzFXiZTYM-186" value="" style="endArrow=none;dashed=1;html=1;dashPattern=1 1;strokeWidth=1;entryX=0.5;entryY=0;entryDx=0;entryDy=0;exitX=0.5;exitY=1;exitDx=0;exitDy=0;" parent="1" source="lMNDnLg550LMzFXiZTYM-140" target="lMNDnLg550LMzFXiZTYM-155" edge="1">
          <mxGeometry width="50" height="50" relative="1" as="geometry">
            <mxPoint x="455" y="750" as="sourcePoint" />
            <mxPoint x="475" y="800" as="targetPoint" />
          </mxGeometry>
        </mxCell>
        <mxCell id="lMNDnLg550LMzFXiZTYM-187" value="" style="endArrow=none;dashed=1;html=1;dashPattern=1 1;strokeWidth=1;entryX=0.5;entryY=0;entryDx=0;entryDy=0;exitX=0.5;exitY=1;exitDx=0;exitDy=0;" parent="1" source="lMNDnLg550LMzFXiZTYM-154" target="lMNDnLg550LMzFXiZTYM-127" edge="1">
          <mxGeometry width="50" height="50" relative="1" as="geometry">
            <mxPoint x="465" y="760" as="sourcePoint" />
            <mxPoint x="485" y="810" as="targetPoint" />
          </mxGeometry>
        </mxCell>
        <mxCell id="lMNDnLg550LMzFXiZTYM-188" value="" style="endArrow=none;dashed=1;html=1;dashPattern=1 1;strokeWidth=1;entryX=0.5;entryY=0;entryDx=0;entryDy=0;exitX=0.5;exitY=1;exitDx=0;exitDy=0;" parent="1" source="lMNDnLg550LMzFXiZTYM-157" target="lMNDnLg550LMzFXiZTYM-127" edge="1">
          <mxGeometry width="50" height="50" relative="1" as="geometry">
            <mxPoint x="475" y="770" as="sourcePoint" />
            <mxPoint x="495" y="820" as="targetPoint" />
          </mxGeometry>
        </mxCell>
        <mxCell id="lMNDnLg550LMzFXiZTYM-189" value="" style="endArrow=none;dashed=1;html=1;dashPattern=1 1;strokeWidth=1;entryX=0.5;entryY=0;entryDx=0;entryDy=0;exitX=0.5;exitY=1;exitDx=0;exitDy=0;" parent="1" source="lMNDnLg550LMzFXiZTYM-159" target="lMNDnLg550LMzFXiZTYM-127" edge="1">
          <mxGeometry width="50" height="50" relative="1" as="geometry">
            <mxPoint x="485" y="780" as="sourcePoint" />
            <mxPoint x="505" y="830" as="targetPoint" />
          </mxGeometry>
        </mxCell>
        <mxCell id="lMNDnLg550LMzFXiZTYM-190" value="" style="endArrow=none;dashed=1;html=1;dashPattern=1 1;strokeWidth=1;entryX=0.5;entryY=0;entryDx=0;entryDy=0;exitX=0.5;exitY=1;exitDx=0;exitDy=0;" parent="1" source="lMNDnLg550LMzFXiZTYM-158" target="lMNDnLg550LMzFXiZTYM-127" edge="1">
          <mxGeometry width="50" height="50" relative="1" as="geometry">
            <mxPoint x="495" y="790" as="sourcePoint" />
            <mxPoint x="515" y="840" as="targetPoint" />
          </mxGeometry>
        </mxCell>
        <mxCell id="lMNDnLg550LMzFXiZTYM-191" value="" style="endArrow=none;dashed=1;html=1;dashPattern=1 1;strokeWidth=1;exitX=0.5;exitY=1;exitDx=0;exitDy=0;" parent="1" source="lMNDnLg550LMzFXiZTYM-154" edge="1">
          <mxGeometry width="50" height="50" relative="1" as="geometry">
            <mxPoint x="505" y="800" as="sourcePoint" />
            <mxPoint x="635" y="750" as="targetPoint" />
          </mxGeometry>
        </mxCell>
        <mxCell id="lMNDnLg550LMzFXiZTYM-192" value="" style="endArrow=none;dashed=1;html=1;dashPattern=1 1;strokeWidth=1;entryX=0.5;entryY=1;entryDx=0;entryDy=0;" parent="1" target="lMNDnLg550LMzFXiZTYM-157" edge="1">
          <mxGeometry width="50" height="50" relative="1" as="geometry">
            <mxPoint x="630" y="750" as="sourcePoint" />
            <mxPoint x="535" y="860" as="targetPoint" />
          </mxGeometry>
        </mxCell>
        <mxCell id="lMNDnLg550LMzFXiZTYM-194" value="" style="endArrow=none;dashed=1;html=1;dashPattern=1 1;strokeWidth=1;entryX=0.5;entryY=1;entryDx=0;entryDy=0;" parent="1" target="lMNDnLg550LMzFXiZTYM-159" edge="1">
          <mxGeometry width="50" height="50" relative="1" as="geometry">
            <mxPoint x="625" y="750" as="sourcePoint" />
            <mxPoint x="555" y="880" as="targetPoint" />
          </mxGeometry>
        </mxCell>
        <mxCell id="lMNDnLg550LMzFXiZTYM-195" value="" style="endArrow=none;dashed=1;html=1;dashPattern=1 1;strokeWidth=1;exitX=0.5;exitY=0;exitDx=0;exitDy=0;" parent="1" source="lMNDnLg550LMzFXiZTYM-129" edge="1">
          <mxGeometry width="50" height="50" relative="1" as="geometry">
            <mxPoint x="545" y="840" as="sourcePoint" />
            <mxPoint x="690" y="740" as="targetPoint" />
          </mxGeometry>
        </mxCell>
        <mxCell id="lMNDnLg550LMzFXiZTYM-196" value="" style="endArrow=none;dashed=1;html=1;dashPattern=1 1;strokeWidth=1;exitX=0.5;exitY=0;exitDx=0;exitDy=0;" parent="1" source="lMNDnLg550LMzFXiZTYM-129" edge="1">
          <mxGeometry width="50" height="50" relative="1" as="geometry">
            <mxPoint x="555" y="850" as="sourcePoint" />
            <mxPoint x="595" y="740" as="targetPoint" />
          </mxGeometry>
        </mxCell>
        <mxCell id="lMNDnLg550LMzFXiZTYM-197" value="" style="endArrow=none;dashed=1;html=1;dashPattern=1 1;strokeWidth=1;exitX=0.5;exitY=0;exitDx=0;exitDy=0;entryX=0.5;entryY=1;entryDx=0;entryDy=0;" parent="1" source="lMNDnLg550LMzFXiZTYM-129" target="lMNDnLg550LMzFXiZTYM-157" edge="1">
          <mxGeometry width="50" height="50" relative="1" as="geometry">
            <mxPoint x="565" y="860" as="sourcePoint" />
            <mxPoint x="635" y="810" as="targetPoint" />
          </mxGeometry>
        </mxCell>
        <mxCell id="lMNDnLg550LMzFXiZTYM-198" value="" style="endArrow=none;dashed=1;html=1;dashPattern=1 1;strokeWidth=1;exitX=0.5;exitY=0;exitDx=0;exitDy=0;" parent="1" source="lMNDnLg550LMzFXiZTYM-129" edge="1">
          <mxGeometry width="50" height="50" relative="1" as="geometry">
            <mxPoint x="685" y="750" as="sourcePoint" />
            <mxPoint x="835" y="740" as="targetPoint" />
          </mxGeometry>
        </mxCell>
        <mxCell id="lMNDnLg550LMzFXiZTYM-199" value="" style="endArrow=none;dashed=1;html=1;dashPattern=1 1;strokeWidth=1;exitX=0.5;exitY=0;exitDx=0;exitDy=0;" parent="1" source="lMNDnLg550LMzFXiZTYM-132" edge="1">
          <mxGeometry width="50" height="50" relative="1" as="geometry">
            <mxPoint x="585" y="880" as="sourcePoint" />
            <mxPoint x="840" y="740" as="targetPoint" />
          </mxGeometry>
        </mxCell>
        <mxCell id="lMNDnLg550LMzFXiZTYM-200" value="" style="endArrow=none;dashed=1;html=1;dashPattern=1 1;strokeWidth=1;" parent="1" edge="1">
          <mxGeometry width="50" height="50" relative="1" as="geometry">
            <mxPoint x="765" y="430" as="sourcePoint" />
            <mxPoint x="785" y="480" as="targetPoint" />
          </mxGeometry>
        </mxCell>
        <mxCell id="lMNDnLg550LMzFXiZTYM-201" value="" style="endArrow=none;dashed=1;html=1;dashPattern=1 1;strokeWidth=1;entryX=0.5;entryY=0;entryDx=0;entryDy=0;exitX=0.5;exitY=1;exitDx=0;exitDy=0;" parent="1" source="lMNDnLg550LMzFXiZTYM-159" target="lMNDnLg550LMzFXiZTYM-132" edge="1">
          <mxGeometry width="50" height="50" relative="1" as="geometry">
            <mxPoint x="970" y="650" as="sourcePoint" />
            <mxPoint x="835" y="750" as="targetPoint" />
          </mxGeometry>
        </mxCell>
        <mxCell id="lMNDnLg550LMzFXiZTYM-202" value="" style="endArrow=none;dashed=1;html=1;dashPattern=1 1;strokeWidth=1;" parent="1" edge="1">
          <mxGeometry width="50" height="50" relative="1" as="geometry">
            <mxPoint x="635" y="740" as="sourcePoint" />
            <mxPoint x="845" y="750" as="targetPoint" />
          </mxGeometry>
        </mxCell>
        <mxCell id="lMNDnLg550LMzFXiZTYM-203" value="" style="endArrow=none;dashed=1;html=1;dashPattern=1 1;strokeWidth=1;" parent="1" edge="1">
          <mxGeometry width="50" height="50" relative="1" as="geometry">
            <mxPoint x="595" y="740" as="sourcePoint" />
            <mxPoint x="845" y="750" as="targetPoint" />
          </mxGeometry>
        </mxCell>
        <mxCell id="lMNDnLg550LMzFXiZTYM-204" value="" style="rounded=0;whiteSpace=wrap;html=1;" parent="1" vertex="1">
          <mxGeometry x="120" y="160" width="280" height="120" as="geometry" />
        </mxCell>
        <mxCell id="lMNDnLg550LMzFXiZTYM-205" value="" style="rounded=1;whiteSpace=wrap;html=1;" parent="1" vertex="1">
          <mxGeometry x="120" y="250" width="30" height="20" as="geometry" />
        </mxCell>
        <mxCell id="lMNDnLg550LMzFXiZTYM-206" value="" style="rounded=1;whiteSpace=wrap;html=1;" parent="1" vertex="1">
          <mxGeometry x="160" y="250" width="30" height="20" as="geometry" />
        </mxCell>
        <mxCell id="lMNDnLg550LMzFXiZTYM-207" value="" style="rounded=1;whiteSpace=wrap;html=1;" parent="1" vertex="1">
          <mxGeometry x="220" y="250" width="30" height="20" as="geometry" />
        </mxCell>
        <mxCell id="lMNDnLg550LMzFXiZTYM-208" value="" style="rounded=1;whiteSpace=wrap;html=1;" parent="1" vertex="1">
          <mxGeometry x="260" y="250" width="30" height="20" as="geometry" />
        </mxCell>
        <mxCell id="lMNDnLg550LMzFXiZTYM-209" value="" style="rounded=1;whiteSpace=wrap;html=1;" parent="1" vertex="1">
          <mxGeometry x="300" y="250" width="30" height="20" as="geometry" />
        </mxCell>
        <mxCell id="lMNDnLg550LMzFXiZTYM-210" value="" style="rounded=1;whiteSpace=wrap;html=1;" parent="1" vertex="1">
          <mxGeometry x="370" y="250" width="30" height="20" as="geometry" />
        </mxCell>
        <mxCell id="lMNDnLg550LMzFXiZTYM-211" value="..." style="text;html=1;strokeColor=none;fillColor=none;align=center;verticalAlign=middle;whiteSpace=wrap;rounded=0;" parent="1" vertex="1">
          <mxGeometry x="185" y="250" width="40" height="20" as="geometry" />
        </mxCell>
        <mxCell id="lMNDnLg550LMzFXiZTYM-212" value="..." style="text;html=1;strokeColor=none;fillColor=none;align=center;verticalAlign=middle;whiteSpace=wrap;rounded=0;" parent="1" vertex="1">
          <mxGeometry x="330" y="250" width="50" height="20" as="geometry" />
        </mxCell>
        <mxCell id="lMNDnLg550LMzFXiZTYM-213" value="" style="rounded=1;whiteSpace=wrap;html=1;" parent="1" vertex="1">
          <mxGeometry x="120" y="170" width="30" height="20" as="geometry" />
        </mxCell>
        <mxCell id="lMNDnLg550LMzFXiZTYM-214" value="" style="rounded=1;whiteSpace=wrap;html=1;" parent="1" vertex="1">
          <mxGeometry x="160" y="170" width="30" height="20" as="geometry" />
        </mxCell>
        <mxCell id="lMNDnLg550LMzFXiZTYM-215" value="" style="rounded=1;whiteSpace=wrap;html=1;" parent="1" vertex="1">
          <mxGeometry x="220" y="170" width="30" height="20" as="geometry" />
        </mxCell>
        <mxCell id="lMNDnLg550LMzFXiZTYM-216" value="" style="rounded=1;whiteSpace=wrap;html=1;" parent="1" vertex="1">
          <mxGeometry x="260" y="170" width="30" height="20" as="geometry" />
        </mxCell>
        <mxCell id="lMNDnLg550LMzFXiZTYM-217" value="" style="rounded=1;whiteSpace=wrap;html=1;" parent="1" vertex="1">
          <mxGeometry x="300" y="170" width="30" height="20" as="geometry" />
        </mxCell>
        <mxCell id="lMNDnLg550LMzFXiZTYM-218" value="" style="rounded=1;whiteSpace=wrap;html=1;" parent="1" vertex="1">
          <mxGeometry x="370" y="170" width="30" height="20" as="geometry" />
        </mxCell>
        <mxCell id="lMNDnLg550LMzFXiZTYM-219" value="..." style="text;html=1;strokeColor=none;fillColor=none;align=center;verticalAlign=middle;whiteSpace=wrap;rounded=0;" parent="1" vertex="1">
          <mxGeometry x="185" y="170" width="40" height="20" as="geometry" />
        </mxCell>
        <mxCell id="lMNDnLg550LMzFXiZTYM-220" value="..." style="text;html=1;strokeColor=none;fillColor=none;align=center;verticalAlign=middle;whiteSpace=wrap;rounded=0;" parent="1" vertex="1">
          <mxGeometry x="330" y="170" width="40" height="20" as="geometry" />
        </mxCell>
        <mxCell id="lMNDnLg550LMzFXiZTYM-221" value="&lt;font style=&quot;font-size: 13px&quot;&gt;BERT&lt;/font&gt;" style="text;html=1;strokeColor=none;fillColor=none;align=center;verticalAlign=middle;whiteSpace=wrap;rounded=0;" parent="1" vertex="1">
          <mxGeometry x="235" y="210" width="40" height="20" as="geometry" />
        </mxCell>
        <mxCell id="lMNDnLg550LMzFXiZTYM-222" value="" style="ellipse;whiteSpace=wrap;html=1;dashed=1;dashPattern=1 1;" parent="1" vertex="1">
          <mxGeometry x="125" y="200" width="20" height="10" as="geometry" />
        </mxCell>
        <mxCell id="lMNDnLg550LMzFXiZTYM-223" value="" style="ellipse;whiteSpace=wrap;html=1;dashed=1;dashPattern=1 1;" parent="1" vertex="1">
          <mxGeometry x="225" y="200" width="20" height="10" as="geometry" />
        </mxCell>
        <mxCell id="lMNDnLg550LMzFXiZTYM-224" value="" style="ellipse;whiteSpace=wrap;html=1;dashed=1;dashPattern=1 1;" parent="1" vertex="1">
          <mxGeometry x="165" y="200" width="20" height="10" as="geometry" />
        </mxCell>
        <mxCell id="lMNDnLg550LMzFXiZTYM-225" value="" style="ellipse;whiteSpace=wrap;html=1;dashed=1;dashPattern=1 1;" parent="1" vertex="1">
          <mxGeometry x="125" y="230" width="20" height="10" as="geometry" />
        </mxCell>
        <mxCell id="lMNDnLg550LMzFXiZTYM-226" value="" style="ellipse;whiteSpace=wrap;html=1;dashed=1;dashPattern=1 1;" parent="1" vertex="1">
          <mxGeometry x="375" y="200" width="20" height="10" as="geometry" />
        </mxCell>
        <mxCell id="lMNDnLg550LMzFXiZTYM-227" value="" style="ellipse;whiteSpace=wrap;html=1;dashed=1;dashPattern=1 1;" parent="1" vertex="1">
          <mxGeometry x="165" y="230" width="20" height="10" as="geometry" />
        </mxCell>
        <mxCell id="lMNDnLg550LMzFXiZTYM-228" value="" style="ellipse;whiteSpace=wrap;html=1;dashed=1;dashPattern=1 1;" parent="1" vertex="1">
          <mxGeometry x="375" y="230" width="20" height="10" as="geometry" />
        </mxCell>
        <mxCell id="lMNDnLg550LMzFXiZTYM-229" value="" style="ellipse;whiteSpace=wrap;html=1;dashed=1;dashPattern=1 1;" parent="1" vertex="1">
          <mxGeometry x="225" y="230" width="20" height="10" as="geometry" />
        </mxCell>
        <mxCell id="lMNDnLg550LMzFXiZTYM-230" value="" style="endArrow=none;dashed=1;html=1;dashPattern=1 1;strokeWidth=1;entryX=0.5;entryY=1;entryDx=0;entryDy=0;exitX=0.5;exitY=0;exitDx=0;exitDy=0;" parent="1" source="lMNDnLg550LMzFXiZTYM-225" target="lMNDnLg550LMzFXiZTYM-224" edge="1">
          <mxGeometry width="50" height="50" relative="1" as="geometry">
            <mxPoint x="129" y="230" as="sourcePoint" />
            <mxPoint x="179" y="180" as="targetPoint" />
          </mxGeometry>
        </mxCell>
        <mxCell id="lMNDnLg550LMzFXiZTYM-231" value="" style="endArrow=none;dashed=1;html=1;dashPattern=1 1;strokeWidth=1;entryX=0.5;entryY=0;entryDx=0;entryDy=0;exitX=0.5;exitY=1;exitDx=0;exitDy=0;" parent="1" source="lMNDnLg550LMzFXiZTYM-222" target="lMNDnLg550LMzFXiZTYM-227" edge="1">
          <mxGeometry width="50" height="50" relative="1" as="geometry">
            <mxPoint x="145" y="240" as="sourcePoint" />
            <mxPoint x="185" y="220" as="targetPoint" />
          </mxGeometry>
        </mxCell>
        <mxCell id="lMNDnLg550LMzFXiZTYM-232" value="" style="endArrow=none;dashed=1;html=1;dashPattern=1 1;strokeWidth=1;entryX=0.5;entryY=1;entryDx=0;entryDy=0;" parent="1" target="lMNDnLg550LMzFXiZTYM-223" edge="1">
          <mxGeometry width="50" height="50" relative="1" as="geometry">
            <mxPoint x="140" y="230" as="sourcePoint" />
            <mxPoint x="195" y="230" as="targetPoint" />
          </mxGeometry>
        </mxCell>
        <mxCell id="lMNDnLg550LMzFXiZTYM-233" value="" style="endArrow=none;dashed=1;html=1;dashPattern=1 1;strokeWidth=1;entryX=0.5;entryY=1;entryDx=0;entryDy=0;" parent="1" target="lMNDnLg550LMzFXiZTYM-226" edge="1">
          <mxGeometry width="50" height="50" relative="1" as="geometry">
            <mxPoint x="140" y="230" as="sourcePoint" />
            <mxPoint x="205" y="240" as="targetPoint" />
          </mxGeometry>
        </mxCell>
        <mxCell id="lMNDnLg550LMzFXiZTYM-234" value="" style="endArrow=none;dashed=1;html=1;dashPattern=1 1;strokeWidth=1;entryX=0.5;entryY=1;entryDx=0;entryDy=0;" parent="1" target="lMNDnLg550LMzFXiZTYM-224" edge="1">
          <mxGeometry width="50" height="50" relative="1" as="geometry">
            <mxPoint x="175" y="230" as="sourcePoint" />
            <mxPoint x="215" y="250" as="targetPoint" />
          </mxGeometry>
        </mxCell>
        <mxCell id="lMNDnLg550LMzFXiZTYM-235" value="" style="endArrow=none;dashed=1;html=1;dashPattern=1 1;strokeWidth=1;entryX=1;entryY=1;entryDx=0;entryDy=0;exitX=0.5;exitY=0;exitDx=0;exitDy=0;" parent="1" source="lMNDnLg550LMzFXiZTYM-227" target="lMNDnLg550LMzFXiZTYM-226" edge="1">
          <mxGeometry width="50" height="50" relative="1" as="geometry">
            <mxPoint x="185" y="280" as="sourcePoint" />
            <mxPoint x="225" y="260" as="targetPoint" />
          </mxGeometry>
        </mxCell>
        <mxCell id="lMNDnLg550LMzFXiZTYM-236" value="" style="endArrow=none;dashed=1;html=1;dashPattern=1 1;strokeWidth=1;entryX=0.5;entryY=1;entryDx=0;entryDy=0;" parent="1" target="lMNDnLg550LMzFXiZTYM-223" edge="1">
          <mxGeometry width="50" height="50" relative="1" as="geometry">
            <mxPoint x="180" y="230" as="sourcePoint" />
            <mxPoint x="235" y="270" as="targetPoint" />
          </mxGeometry>
        </mxCell>
        <mxCell id="lMNDnLg550LMzFXiZTYM-237" value="" style="endArrow=none;dashed=1;html=1;dashPattern=1 1;strokeWidth=1;exitX=0.5;exitY=0;exitDx=0;exitDy=0;" parent="1" source="lMNDnLg550LMzFXiZTYM-225" edge="1">
          <mxGeometry width="50" height="50" relative="1" as="geometry">
            <mxPoint x="205" y="300" as="sourcePoint" />
            <mxPoint x="135" y="210" as="targetPoint" />
          </mxGeometry>
        </mxCell>
        <mxCell id="lMNDnLg550LMzFXiZTYM-238" value="" style="endArrow=none;dashed=1;html=1;dashPattern=1 1;strokeWidth=1;exitX=0.5;exitY=0;exitDx=0;exitDy=0;" parent="1" source="lMNDnLg550LMzFXiZTYM-229" edge="1">
          <mxGeometry width="50" height="50" relative="1" as="geometry">
            <mxPoint x="215" y="310" as="sourcePoint" />
            <mxPoint x="140" y="210" as="targetPoint" />
          </mxGeometry>
        </mxCell>
        <mxCell id="lMNDnLg550LMzFXiZTYM-239" value="" style="endArrow=none;dashed=1;html=1;dashPattern=1 1;strokeWidth=1;entryX=0.5;entryY=1;entryDx=0;entryDy=0;exitX=0.5;exitY=0;exitDx=0;exitDy=0;" parent="1" source="lMNDnLg550LMzFXiZTYM-229" target="lMNDnLg550LMzFXiZTYM-224" edge="1">
          <mxGeometry width="50" height="50" relative="1" as="geometry">
            <mxPoint x="225" y="320" as="sourcePoint" />
            <mxPoint x="265" y="300" as="targetPoint" />
          </mxGeometry>
        </mxCell>
        <mxCell id="lMNDnLg550LMzFXiZTYM-240" value="" style="endArrow=none;dashed=1;html=1;dashPattern=1 1;strokeWidth=1;entryX=0;entryY=0;entryDx=0;entryDy=0;" parent="1" target="lMNDnLg550LMzFXiZTYM-221" edge="1">
          <mxGeometry width="50" height="50" relative="1" as="geometry">
            <mxPoint x="235" y="230" as="sourcePoint" />
            <mxPoint x="275" y="310" as="targetPoint" />
          </mxGeometry>
        </mxCell>
        <mxCell id="lMNDnLg550LMzFXiZTYM-241" value="" style="endArrow=none;dashed=1;html=1;dashPattern=1 1;strokeWidth=1;exitX=0.5;exitY=0;exitDx=0;exitDy=0;" parent="1" source="lMNDnLg550LMzFXiZTYM-229" edge="1">
          <mxGeometry width="50" height="50" relative="1" as="geometry">
            <mxPoint x="245" y="340" as="sourcePoint" />
            <mxPoint x="390" y="210" as="targetPoint" />
          </mxGeometry>
        </mxCell>
        <mxCell id="lMNDnLg550LMzFXiZTYM-242" value="" style="endArrow=none;dashed=1;html=1;dashPattern=1 1;strokeWidth=1;exitX=0.5;exitY=0;exitDx=0;exitDy=0;" parent="1" source="lMNDnLg550LMzFXiZTYM-228" edge="1">
          <mxGeometry width="50" height="50" relative="1" as="geometry">
            <mxPoint x="255" y="350" as="sourcePoint" />
            <mxPoint x="140" y="210" as="targetPoint" />
          </mxGeometry>
        </mxCell>
        <mxCell id="lMNDnLg550LMzFXiZTYM-243" value="" style="endArrow=none;dashed=1;html=1;dashPattern=1 1;strokeWidth=1;exitX=0.5;exitY=0;exitDx=0;exitDy=0;" parent="1" source="lMNDnLg550LMzFXiZTYM-228" edge="1">
          <mxGeometry width="50" height="50" relative="1" as="geometry">
            <mxPoint x="265" y="360" as="sourcePoint" />
            <mxPoint x="180" y="210" as="targetPoint" />
          </mxGeometry>
        </mxCell>
        <mxCell id="lMNDnLg550LMzFXiZTYM-244" value="" style="endArrow=none;dashed=1;html=1;dashPattern=1 1;strokeWidth=1;entryX=0.5;entryY=1;entryDx=0;entryDy=0;" parent="1" target="lMNDnLg550LMzFXiZTYM-223" edge="1">
          <mxGeometry width="50" height="50" relative="1" as="geometry">
            <mxPoint x="380" y="230" as="sourcePoint" />
            <mxPoint x="315" y="350" as="targetPoint" />
          </mxGeometry>
        </mxCell>
        <mxCell id="lMNDnLg550LMzFXiZTYM-245" value="" style="endArrow=none;dashed=1;html=1;dashPattern=1 1;strokeWidth=1;exitX=0.5;exitY=0;exitDx=0;exitDy=0;" parent="1" source="lMNDnLg550LMzFXiZTYM-228" edge="1">
          <mxGeometry width="50" height="50" relative="1" as="geometry">
            <mxPoint x="145" y="240" as="sourcePoint" />
            <mxPoint x="385" y="210" as="targetPoint" />
          </mxGeometry>
        </mxCell>
        <mxCell id="lMNDnLg550LMzFXiZTYM-246" value="" style="endArrow=none;dashed=1;html=1;dashPattern=1 1;strokeWidth=1;entryX=0.5;entryY=0;entryDx=0;entryDy=0;exitX=0.5;exitY=1;exitDx=0;exitDy=0;" parent="1" source="lMNDnLg550LMzFXiZTYM-213" target="lMNDnLg550LMzFXiZTYM-222" edge="1">
          <mxGeometry width="50" height="50" relative="1" as="geometry">
            <mxPoint x="-30" y="220" as="sourcePoint" />
            <mxPoint x="-10" y="270" as="targetPoint" />
          </mxGeometry>
        </mxCell>
        <mxCell id="lMNDnLg550LMzFXiZTYM-247" value="" style="endArrow=none;dashed=1;html=1;dashPattern=1 1;strokeWidth=1;exitX=0.5;exitY=0;exitDx=0;exitDy=0;entryX=0.5;entryY=1;entryDx=0;entryDy=0;" parent="1" source="lMNDnLg550LMzFXiZTYM-224" target="lMNDnLg550LMzFXiZTYM-214" edge="1">
          <mxGeometry width="50" height="50" relative="1" as="geometry">
            <mxPoint x="-20" y="230" as="sourcePoint" />
            <mxPoint y="280" as="targetPoint" />
          </mxGeometry>
        </mxCell>
        <mxCell id="lMNDnLg550LMzFXiZTYM-248" value="" style="endArrow=none;dashed=1;html=1;dashPattern=1 1;strokeWidth=1;entryX=0.5;entryY=0;entryDx=0;entryDy=0;exitX=0.5;exitY=1;exitDx=0;exitDy=0;" parent="1" source="lMNDnLg550LMzFXiZTYM-215" target="lMNDnLg550LMzFXiZTYM-223" edge="1">
          <mxGeometry width="50" height="50" relative="1" as="geometry">
            <mxPoint x="-10" y="240" as="sourcePoint" />
            <mxPoint x="10" y="290" as="targetPoint" />
          </mxGeometry>
        </mxCell>
        <mxCell id="lMNDnLg550LMzFXiZTYM-249" value="" style="endArrow=none;dashed=1;html=1;dashPattern=1 1;strokeWidth=1;entryX=0.5;entryY=0;entryDx=0;entryDy=0;exitX=0.5;exitY=1;exitDx=0;exitDy=0;" parent="1" source="lMNDnLg550LMzFXiZTYM-218" target="lMNDnLg550LMzFXiZTYM-226" edge="1">
          <mxGeometry width="50" height="50" relative="1" as="geometry">
            <mxPoint y="250" as="sourcePoint" />
            <mxPoint x="20" y="300" as="targetPoint" />
          </mxGeometry>
        </mxCell>
        <mxCell id="lMNDnLg550LMzFXiZTYM-250" value="" style="endArrow=none;dashed=1;html=1;dashPattern=1 1;strokeWidth=1;entryX=0.5;entryY=0;entryDx=0;entryDy=0;exitX=0.5;exitY=1;exitDx=0;exitDy=0;" parent="1" source="lMNDnLg550LMzFXiZTYM-225" target="lMNDnLg550LMzFXiZTYM-205" edge="1">
          <mxGeometry width="50" height="50" relative="1" as="geometry">
            <mxPoint x="10" y="260" as="sourcePoint" />
            <mxPoint x="30" y="310" as="targetPoint" />
          </mxGeometry>
        </mxCell>
        <mxCell id="lMNDnLg550LMzFXiZTYM-251" value="" style="endArrow=none;dashed=1;html=1;dashPattern=1 1;strokeWidth=1;entryX=0.5;entryY=0;entryDx=0;entryDy=0;exitX=0.5;exitY=1;exitDx=0;exitDy=0;" parent="1" source="lMNDnLg550LMzFXiZTYM-227" target="lMNDnLg550LMzFXiZTYM-205" edge="1">
          <mxGeometry width="50" height="50" relative="1" as="geometry">
            <mxPoint x="20" y="270" as="sourcePoint" />
            <mxPoint x="40" y="320" as="targetPoint" />
          </mxGeometry>
        </mxCell>
        <mxCell id="lMNDnLg550LMzFXiZTYM-252" value="" style="endArrow=none;dashed=1;html=1;dashPattern=1 1;strokeWidth=1;entryX=0.5;entryY=0;entryDx=0;entryDy=0;exitX=0.5;exitY=1;exitDx=0;exitDy=0;" parent="1" source="lMNDnLg550LMzFXiZTYM-229" target="lMNDnLg550LMzFXiZTYM-205" edge="1">
          <mxGeometry width="50" height="50" relative="1" as="geometry">
            <mxPoint x="30" y="280" as="sourcePoint" />
            <mxPoint x="50" y="330" as="targetPoint" />
          </mxGeometry>
        </mxCell>
        <mxCell id="lMNDnLg550LMzFXiZTYM-253" value="" style="endArrow=none;dashed=1;html=1;dashPattern=1 1;strokeWidth=1;entryX=0.5;entryY=0;entryDx=0;entryDy=0;exitX=0.5;exitY=1;exitDx=0;exitDy=0;" parent="1" source="lMNDnLg550LMzFXiZTYM-228" target="lMNDnLg550LMzFXiZTYM-205" edge="1">
          <mxGeometry width="50" height="50" relative="1" as="geometry">
            <mxPoint x="40" y="290" as="sourcePoint" />
            <mxPoint x="60" y="340" as="targetPoint" />
          </mxGeometry>
        </mxCell>
        <mxCell id="lMNDnLg550LMzFXiZTYM-254" value="" style="endArrow=none;dashed=1;html=1;dashPattern=1 1;strokeWidth=1;exitX=0.5;exitY=1;exitDx=0;exitDy=0;" parent="1" source="lMNDnLg550LMzFXiZTYM-225" edge="1">
          <mxGeometry width="50" height="50" relative="1" as="geometry">
            <mxPoint x="50" y="300" as="sourcePoint" />
            <mxPoint x="180" y="250" as="targetPoint" />
          </mxGeometry>
        </mxCell>
        <mxCell id="lMNDnLg550LMzFXiZTYM-255" value="" style="endArrow=none;dashed=1;html=1;dashPattern=1 1;strokeWidth=1;entryX=0.5;entryY=1;entryDx=0;entryDy=0;" parent="1" target="lMNDnLg550LMzFXiZTYM-227" edge="1">
          <mxGeometry width="50" height="50" relative="1" as="geometry">
            <mxPoint x="175" y="250" as="sourcePoint" />
            <mxPoint x="80" y="360" as="targetPoint" />
          </mxGeometry>
        </mxCell>
        <mxCell id="lMNDnLg550LMzFXiZTYM-256" value="" style="endArrow=none;dashed=1;html=1;dashPattern=1 1;strokeWidth=1;entryX=0.5;entryY=1;entryDx=0;entryDy=0;" parent="1" target="lMNDnLg550LMzFXiZTYM-229" edge="1">
          <mxGeometry width="50" height="50" relative="1" as="geometry">
            <mxPoint x="170" y="250" as="sourcePoint" />
            <mxPoint x="100" y="380" as="targetPoint" />
          </mxGeometry>
        </mxCell>
        <mxCell id="lMNDnLg550LMzFXiZTYM-257" value="" style="endArrow=none;dashed=1;html=1;dashPattern=1 1;strokeWidth=1;exitX=0.5;exitY=0;exitDx=0;exitDy=0;" parent="1" source="lMNDnLg550LMzFXiZTYM-207" edge="1">
          <mxGeometry width="50" height="50" relative="1" as="geometry">
            <mxPoint x="90" y="340" as="sourcePoint" />
            <mxPoint x="235" y="240" as="targetPoint" />
          </mxGeometry>
        </mxCell>
        <mxCell id="lMNDnLg550LMzFXiZTYM-258" value="" style="endArrow=none;dashed=1;html=1;dashPattern=1 1;strokeWidth=1;exitX=0.5;exitY=0;exitDx=0;exitDy=0;" parent="1" source="lMNDnLg550LMzFXiZTYM-207" edge="1">
          <mxGeometry width="50" height="50" relative="1" as="geometry">
            <mxPoint x="100" y="350" as="sourcePoint" />
            <mxPoint x="140" y="240" as="targetPoint" />
          </mxGeometry>
        </mxCell>
        <mxCell id="lMNDnLg550LMzFXiZTYM-259" value="" style="endArrow=none;dashed=1;html=1;dashPattern=1 1;strokeWidth=1;exitX=0.5;exitY=0;exitDx=0;exitDy=0;entryX=0.5;entryY=1;entryDx=0;entryDy=0;" parent="1" source="lMNDnLg550LMzFXiZTYM-207" target="lMNDnLg550LMzFXiZTYM-227" edge="1">
          <mxGeometry width="50" height="50" relative="1" as="geometry">
            <mxPoint x="110" y="360" as="sourcePoint" />
            <mxPoint x="180" y="310" as="targetPoint" />
          </mxGeometry>
        </mxCell>
        <mxCell id="lMNDnLg550LMzFXiZTYM-260" value="" style="endArrow=none;dashed=1;html=1;dashPattern=1 1;strokeWidth=1;exitX=0.5;exitY=0;exitDx=0;exitDy=0;" parent="1" source="lMNDnLg550LMzFXiZTYM-207" edge="1">
          <mxGeometry width="50" height="50" relative="1" as="geometry">
            <mxPoint x="230" y="250" as="sourcePoint" />
            <mxPoint x="380" y="240" as="targetPoint" />
          </mxGeometry>
        </mxCell>
        <mxCell id="lMNDnLg550LMzFXiZTYM-261" value="" style="endArrow=none;dashed=1;html=1;dashPattern=1 1;strokeWidth=1;exitX=0.5;exitY=0;exitDx=0;exitDy=0;" parent="1" source="lMNDnLg550LMzFXiZTYM-210" edge="1">
          <mxGeometry width="50" height="50" relative="1" as="geometry">
            <mxPoint x="130" y="380" as="sourcePoint" />
            <mxPoint x="385" y="240" as="targetPoint" />
          </mxGeometry>
        </mxCell>
        <mxCell id="lMNDnLg550LMzFXiZTYM-262" value="" style="endArrow=none;dashed=1;html=1;dashPattern=1 1;strokeWidth=1;entryX=0.5;entryY=0;entryDx=0;entryDy=0;exitX=0.5;exitY=1;exitDx=0;exitDy=0;" parent="1" source="lMNDnLg550LMzFXiZTYM-229" target="lMNDnLg550LMzFXiZTYM-210" edge="1">
          <mxGeometry width="50" height="50" relative="1" as="geometry">
            <mxPoint x="515" y="150" as="sourcePoint" />
            <mxPoint x="380" y="250" as="targetPoint" />
          </mxGeometry>
        </mxCell>
        <mxCell id="lMNDnLg550LMzFXiZTYM-263" value="" style="endArrow=none;dashed=1;html=1;dashPattern=1 1;strokeWidth=1;" parent="1" edge="1">
          <mxGeometry width="50" height="50" relative="1" as="geometry">
            <mxPoint x="180" y="240" as="sourcePoint" />
            <mxPoint x="390" y="250" as="targetPoint" />
          </mxGeometry>
        </mxCell>
        <mxCell id="lMNDnLg550LMzFXiZTYM-264" value="" style="endArrow=none;dashed=1;html=1;dashPattern=1 1;strokeWidth=1;" parent="1" edge="1">
          <mxGeometry width="50" height="50" relative="1" as="geometry">
            <mxPoint x="140" y="240" as="sourcePoint" />
            <mxPoint x="390" y="250" as="targetPoint" />
          </mxGeometry>
        </mxCell>
        <mxCell id="lMNDnLg550LMzFXiZTYM-274" value="" style="endArrow=none;html=1;strokeWidth=1;" parent="1" edge="1">
          <mxGeometry width="50" height="50" relative="1" as="geometry">
            <mxPoint x="205" y="360" as="sourcePoint" />
            <mxPoint x="205" y="350" as="targetPoint" />
          </mxGeometry>
        </mxCell>
        <mxCell id="lMNDnLg550LMzFXiZTYM-275" value="" style="endArrow=none;html=1;strokeWidth=1;" parent="1" edge="1">
          <mxGeometry width="50" height="50" relative="1" as="geometry">
            <mxPoint x="385" y="350" as="sourcePoint" />
            <mxPoint x="315" y="350" as="targetPoint" />
          </mxGeometry>
        </mxCell>
        <mxCell id="lMNDnLg550LMzFXiZTYM-276" value="" style="endArrow=none;html=1;strokeWidth=1;entryX=0.5;entryY=1;entryDx=0;entryDy=0;" parent="1" target="lMNDnLg550LMzFXiZTYM-21" edge="1">
          <mxGeometry width="50" height="50" relative="1" as="geometry">
            <mxPoint x="385" y="350" as="sourcePoint" />
            <mxPoint x="495" y="358" as="targetPoint" />
          </mxGeometry>
        </mxCell>
        <mxCell id="lMNDnLg550LMzFXiZTYM-277" value="" style="endArrow=none;html=1;strokeWidth=1;entryX=0.5;entryY=1;entryDx=0;entryDy=0;" parent="1" edge="1">
          <mxGeometry width="50" height="50" relative="1" as="geometry">
            <mxPoint x="315" y="350" as="sourcePoint" />
            <mxPoint x="314.5" y="340" as="targetPoint" />
          </mxGeometry>
        </mxCell>
        <mxCell id="lMNDnLg550LMzFXiZTYM-278" value="" style="endArrow=none;html=1;strokeWidth=1;entryX=0.5;entryY=1;entryDx=0;entryDy=0;" parent="1" edge="1">
          <mxGeometry width="50" height="50" relative="1" as="geometry">
            <mxPoint x="175" y="350" as="sourcePoint" />
            <mxPoint x="174.5" y="340" as="targetPoint" />
          </mxGeometry>
        </mxCell>
        <mxCell id="lMNDnLg550LMzFXiZTYM-279" value="" style="endArrow=none;html=1;strokeWidth=1;entryX=0.5;entryY=1;entryDx=0;entryDy=0;" parent="1" edge="1">
          <mxGeometry width="50" height="50" relative="1" as="geometry">
            <mxPoint x="239" y="350" as="sourcePoint" />
            <mxPoint x="239" y="340" as="targetPoint" />
          </mxGeometry>
        </mxCell>
        <mxCell id="lMNDnLg550LMzFXiZTYM-280" value="" style="endArrow=none;html=1;strokeWidth=1;" parent="1" edge="1">
          <mxGeometry width="50" height="50" relative="1" as="geometry">
            <mxPoint x="240" y="350" as="sourcePoint" />
            <mxPoint x="175" y="350" as="targetPoint" />
          </mxGeometry>
        </mxCell>
        <mxCell id="lMNDnLg550LMzFXiZTYM-281" value="" style="endArrow=none;html=1;strokeWidth=1;" parent="1" edge="1">
          <mxGeometry width="50" height="50" relative="1" as="geometry">
            <mxPoint x="349" y="360" as="sourcePoint" />
            <mxPoint x="349" y="350" as="targetPoint" />
          </mxGeometry>
        </mxCell>
      </root>
    </mxGraphModel>
  </diagram>
  <diagram id="Y7l1kuMmQtJAY62mZDtn" name="Page-2">
    <mxGraphModel dx="1047" dy="423" grid="1" gridSize="10" guides="1" tooltips="1" connect="1" arrows="1" fold="1" page="1" pageScale="1" pageWidth="827" pageHeight="1169" math="0" shadow="0">
      <root>
        <mxCell id="3iHz2U1iMEFSkPB0zB9P-0" />
        <mxCell id="3iHz2U1iMEFSkPB0zB9P-1" parent="3iHz2U1iMEFSkPB0zB9P-0" />
        <mxCell id="NPgQiEpecLrd4a7U6wOF-0" value="" style="rounded=1;whiteSpace=wrap;html=1;" parent="3iHz2U1iMEFSkPB0zB9P-1" vertex="1">
          <mxGeometry x="72.5" y="95" width="375" height="350" as="geometry" />
        </mxCell>
        <mxCell id="NPgQiEpecLrd4a7U6wOF-1" value="[CLS]" style="rounded=1;whiteSpace=wrap;html=1;" parent="3iHz2U1iMEFSkPB0zB9P-1" vertex="1">
          <mxGeometry x="120" y="320" width="30" height="20" as="geometry" />
        </mxCell>
        <mxCell id="NPgQiEpecLrd4a7U6wOF-2" value="Tok1" style="rounded=1;whiteSpace=wrap;html=1;" parent="3iHz2U1iMEFSkPB0zB9P-1" vertex="1">
          <mxGeometry x="160" y="320" width="30" height="20" as="geometry" />
        </mxCell>
        <mxCell id="NPgQiEpecLrd4a7U6wOF-3" value="TokN" style="rounded=1;whiteSpace=wrap;html=1;" parent="3iHz2U1iMEFSkPB0zB9P-1" vertex="1">
          <mxGeometry x="220" y="320" width="30" height="20" as="geometry" />
        </mxCell>
        <mxCell id="NPgQiEpecLrd4a7U6wOF-4" value="[SEP]" style="rounded=1;whiteSpace=wrap;html=1;" parent="3iHz2U1iMEFSkPB0zB9P-1" vertex="1">
          <mxGeometry x="260" y="320" width="30" height="20" as="geometry" />
        </mxCell>
        <mxCell id="NPgQiEpecLrd4a7U6wOF-5" value="TOK1" style="rounded=1;whiteSpace=wrap;html=1;" parent="3iHz2U1iMEFSkPB0zB9P-1" vertex="1">
          <mxGeometry x="300" y="320" width="30" height="20" as="geometry" />
        </mxCell>
        <mxCell id="NPgQiEpecLrd4a7U6wOF-6" value="TOKM" style="rounded=1;whiteSpace=wrap;html=1;" parent="3iHz2U1iMEFSkPB0zB9P-1" vertex="1">
          <mxGeometry x="370" y="320" width="30" height="20" as="geometry" />
        </mxCell>
        <mxCell id="NPgQiEpecLrd4a7U6wOF-7" value="..." style="text;html=1;strokeColor=none;fillColor=none;align=center;verticalAlign=middle;whiteSpace=wrap;rounded=0;" parent="3iHz2U1iMEFSkPB0zB9P-1" vertex="1">
          <mxGeometry x="185" y="320" width="40" height="20" as="geometry" />
        </mxCell>
        <mxCell id="NPgQiEpecLrd4a7U6wOF-8" value="..." style="text;html=1;strokeColor=none;fillColor=none;align=center;verticalAlign=middle;whiteSpace=wrap;rounded=0;" parent="3iHz2U1iMEFSkPB0zB9P-1" vertex="1">
          <mxGeometry x="330" y="320" width="40" height="20" as="geometry" />
        </mxCell>
        <mxCell id="NPgQiEpecLrd4a7U6wOF-9" value="" style="shape=flexArrow;endArrow=classic;html=1;width=6;endSize=7.67;" parent="3iHz2U1iMEFSkPB0zB9P-1" edge="1">
          <mxGeometry width="50" height="50" relative="1" as="geometry">
            <mxPoint x="134.5" y="320" as="sourcePoint" />
            <mxPoint x="134.5" y="280" as="targetPoint" />
          </mxGeometry>
        </mxCell>
        <mxCell id="NPgQiEpecLrd4a7U6wOF-10" value="" style="shape=flexArrow;endArrow=classic;html=1;width=6;endSize=7.67;" parent="3iHz2U1iMEFSkPB0zB9P-1" edge="1">
          <mxGeometry width="50" height="50" relative="1" as="geometry">
            <mxPoint x="174.5" y="320" as="sourcePoint" />
            <mxPoint x="174.5" y="280" as="targetPoint" />
          </mxGeometry>
        </mxCell>
        <mxCell id="NPgQiEpecLrd4a7U6wOF-11" value="" style="shape=flexArrow;endArrow=classic;html=1;width=6;endSize=7.67;" parent="3iHz2U1iMEFSkPB0zB9P-1" edge="1">
          <mxGeometry width="50" height="50" relative="1" as="geometry">
            <mxPoint x="234.5" y="320" as="sourcePoint" />
            <mxPoint x="234.5" y="280" as="targetPoint" />
          </mxGeometry>
        </mxCell>
        <mxCell id="NPgQiEpecLrd4a7U6wOF-12" value="" style="shape=flexArrow;endArrow=classic;html=1;width=6;endSize=7.67;" parent="3iHz2U1iMEFSkPB0zB9P-1" edge="1">
          <mxGeometry width="50" height="50" relative="1" as="geometry">
            <mxPoint x="274.5" y="320" as="sourcePoint" />
            <mxPoint x="274.5" y="280" as="targetPoint" />
          </mxGeometry>
        </mxCell>
        <mxCell id="NPgQiEpecLrd4a7U6wOF-13" value="" style="shape=flexArrow;endArrow=classic;html=1;width=6;endSize=7.67;" parent="3iHz2U1iMEFSkPB0zB9P-1" edge="1">
          <mxGeometry width="50" height="50" relative="1" as="geometry">
            <mxPoint x="314.5" y="320" as="sourcePoint" />
            <mxPoint x="314.5" y="280" as="targetPoint" />
          </mxGeometry>
        </mxCell>
        <mxCell id="NPgQiEpecLrd4a7U6wOF-14" value="" style="shape=flexArrow;endArrow=classic;html=1;width=6;endSize=7.67;" parent="3iHz2U1iMEFSkPB0zB9P-1" edge="1">
          <mxGeometry width="50" height="50" relative="1" as="geometry">
            <mxPoint x="384.5" y="320" as="sourcePoint" />
            <mxPoint x="384.5" y="280" as="targetPoint" />
          </mxGeometry>
        </mxCell>
        <mxCell id="NPgQiEpecLrd4a7U6wOF-15" value="" style="shape=flexArrow;endArrow=classic;html=1;width=6;endSize=7.67;" parent="3iHz2U1iMEFSkPB0zB9P-1" edge="1">
          <mxGeometry width="50" height="50" relative="1" as="geometry">
            <mxPoint x="347" y="160" as="sourcePoint" />
            <mxPoint x="347" y="120" as="targetPoint" />
          </mxGeometry>
        </mxCell>
        <mxCell id="NPgQiEpecLrd4a7U6wOF-16" value="" style="shape=flexArrow;endArrow=classic;html=1;width=6;endSize=7.67;" parent="3iHz2U1iMEFSkPB0zB9P-1" edge="1">
          <mxGeometry width="50" height="50" relative="1" as="geometry">
            <mxPoint x="240" y="160" as="sourcePoint" />
            <mxPoint x="240" y="120" as="targetPoint" />
          </mxGeometry>
        </mxCell>
        <mxCell id="NPgQiEpecLrd4a7U6wOF-17" value="" style="shape=flexArrow;endArrow=classic;html=1;width=6;endSize=7.67;" parent="3iHz2U1iMEFSkPB0zB9P-1" edge="1">
          <mxGeometry width="50" height="50" relative="1" as="geometry">
            <mxPoint x="134.5" y="160" as="sourcePoint" />
            <mxPoint x="134.5" y="120" as="targetPoint" />
          </mxGeometry>
        </mxCell>
        <mxCell id="NPgQiEpecLrd4a7U6wOF-18" value="" style="rounded=0;whiteSpace=wrap;html=1;" parent="3iHz2U1iMEFSkPB0zB9P-1" vertex="1">
          <mxGeometry x="120" y="160" width="280" height="120" as="geometry" />
        </mxCell>
        <mxCell id="NPgQiEpecLrd4a7U6wOF-19" value="" style="rounded=1;whiteSpace=wrap;html=1;" parent="3iHz2U1iMEFSkPB0zB9P-1" vertex="1">
          <mxGeometry x="120" y="250" width="30" height="20" as="geometry" />
        </mxCell>
        <mxCell id="NPgQiEpecLrd4a7U6wOF-20" value="E&lt;sub&gt;1&lt;/sub&gt;" style="rounded=1;whiteSpace=wrap;html=1;" parent="3iHz2U1iMEFSkPB0zB9P-1" vertex="1">
          <mxGeometry x="160" y="250" width="30" height="20" as="geometry" />
        </mxCell>
        <mxCell id="NPgQiEpecLrd4a7U6wOF-21" value="&lt;span style=&quot;font-size: 10px&quot;&gt;E&lt;sub&gt;N&lt;/sub&gt;&lt;/span&gt;" style="rounded=1;whiteSpace=wrap;html=1;" parent="3iHz2U1iMEFSkPB0zB9P-1" vertex="1">
          <mxGeometry x="220" y="250" width="30" height="20" as="geometry" />
        </mxCell>
        <mxCell id="NPgQiEpecLrd4a7U6wOF-22" value="E&lt;sub&gt;[SEP]&lt;/sub&gt;" style="rounded=1;whiteSpace=wrap;html=1;" parent="3iHz2U1iMEFSkPB0zB9P-1" vertex="1">
          <mxGeometry x="260" y="250" width="30" height="20" as="geometry" />
        </mxCell>
        <mxCell id="NPgQiEpecLrd4a7U6wOF-23" value="E&lt;span style=&quot;font-size: 10px&quot;&gt;&lt;sub&gt;1&lt;/sub&gt;&lt;sup&gt;&#39;&lt;/sup&gt;&lt;/span&gt;" style="rounded=1;whiteSpace=wrap;html=1;" parent="3iHz2U1iMEFSkPB0zB9P-1" vertex="1">
          <mxGeometry x="300" y="250" width="30" height="20" as="geometry" />
        </mxCell>
        <mxCell id="NPgQiEpecLrd4a7U6wOF-24" value="E&lt;span style=&quot;font-size: 8.33333px&quot;&gt;&lt;sub&gt;N&lt;/sub&gt;&lt;sup&gt;&#39;&lt;/sup&gt;&lt;/span&gt;" style="rounded=1;whiteSpace=wrap;html=1;" parent="3iHz2U1iMEFSkPB0zB9P-1" vertex="1">
          <mxGeometry x="370" y="250" width="30" height="20" as="geometry" />
        </mxCell>
        <mxCell id="NPgQiEpecLrd4a7U6wOF-25" value="..." style="text;html=1;strokeColor=none;fillColor=none;align=center;verticalAlign=middle;whiteSpace=wrap;rounded=0;" parent="3iHz2U1iMEFSkPB0zB9P-1" vertex="1">
          <mxGeometry x="185" y="250" width="40" height="20" as="geometry" />
        </mxCell>
        <mxCell id="NPgQiEpecLrd4a7U6wOF-26" value="..." style="text;html=1;strokeColor=none;fillColor=none;align=center;verticalAlign=middle;whiteSpace=wrap;rounded=0;" parent="3iHz2U1iMEFSkPB0zB9P-1" vertex="1">
          <mxGeometry x="330" y="250" width="50" height="20" as="geometry" />
        </mxCell>
        <mxCell id="NPgQiEpecLrd4a7U6wOF-27" value="C" style="rounded=1;whiteSpace=wrap;html=1;" parent="3iHz2U1iMEFSkPB0zB9P-1" vertex="1">
          <mxGeometry x="120" y="170" width="30" height="20" as="geometry" />
        </mxCell>
        <mxCell id="NPgQiEpecLrd4a7U6wOF-28" value="T&lt;sub&gt;1&lt;/sub&gt;" style="rounded=1;whiteSpace=wrap;html=1;" parent="3iHz2U1iMEFSkPB0zB9P-1" vertex="1">
          <mxGeometry x="160" y="170" width="30" height="20" as="geometry" />
        </mxCell>
        <mxCell id="NPgQiEpecLrd4a7U6wOF-29" value="T&lt;sub&gt;N&lt;/sub&gt;" style="rounded=1;whiteSpace=wrap;html=1;" parent="3iHz2U1iMEFSkPB0zB9P-1" vertex="1">
          <mxGeometry x="220" y="170" width="30" height="20" as="geometry" />
        </mxCell>
        <mxCell id="NPgQiEpecLrd4a7U6wOF-30" value="T&lt;sub&gt;[SEP]&lt;/sub&gt;" style="rounded=1;whiteSpace=wrap;html=1;" parent="3iHz2U1iMEFSkPB0zB9P-1" vertex="1">
          <mxGeometry x="260" y="170" width="30" height="20" as="geometry" />
        </mxCell>
        <mxCell id="NPgQiEpecLrd4a7U6wOF-31" value="T&lt;span style=&quot;font-size: 8.33333px&quot;&gt;&lt;sub&gt;1&lt;/sub&gt;&lt;sup&gt;&#39;&lt;/sup&gt;&lt;/span&gt;" style="rounded=1;whiteSpace=wrap;html=1;" parent="3iHz2U1iMEFSkPB0zB9P-1" vertex="1">
          <mxGeometry x="300" y="170" width="30" height="20" as="geometry" />
        </mxCell>
        <mxCell id="NPgQiEpecLrd4a7U6wOF-32" value="T&lt;sub&gt;N&lt;/sub&gt;&lt;sup&gt;&#39;&lt;/sup&gt;" style="rounded=1;whiteSpace=wrap;html=1;" parent="3iHz2U1iMEFSkPB0zB9P-1" vertex="1">
          <mxGeometry x="370" y="170" width="30" height="20" as="geometry" />
        </mxCell>
        <mxCell id="NPgQiEpecLrd4a7U6wOF-33" value="..." style="text;html=1;strokeColor=none;fillColor=none;align=center;verticalAlign=middle;whiteSpace=wrap;rounded=0;" parent="3iHz2U1iMEFSkPB0zB9P-1" vertex="1">
          <mxGeometry x="185" y="170" width="40" height="20" as="geometry" />
        </mxCell>
        <mxCell id="NPgQiEpecLrd4a7U6wOF-34" value="..." style="text;html=1;strokeColor=none;fillColor=none;align=center;verticalAlign=middle;whiteSpace=wrap;rounded=0;" parent="3iHz2U1iMEFSkPB0zB9P-1" vertex="1">
          <mxGeometry x="330" y="170" width="40" height="20" as="geometry" />
        </mxCell>
        <mxCell id="NPgQiEpecLrd4a7U6wOF-35" value="&lt;font style=&quot;font-size: 13px&quot;&gt;BERT&lt;/font&gt;" style="text;html=1;strokeColor=none;fillColor=none;align=center;verticalAlign=middle;whiteSpace=wrap;rounded=0;" parent="3iHz2U1iMEFSkPB0zB9P-1" vertex="1">
          <mxGeometry x="235" y="210" width="40" height="20" as="geometry" />
        </mxCell>
        <mxCell id="NPgQiEpecLrd4a7U6wOF-36" value="" style="ellipse;whiteSpace=wrap;html=1;dashed=1;dashPattern=1 1;" parent="3iHz2U1iMEFSkPB0zB9P-1" vertex="1">
          <mxGeometry x="125" y="200" width="20" height="10" as="geometry" />
        </mxCell>
        <mxCell id="NPgQiEpecLrd4a7U6wOF-37" value="" style="ellipse;whiteSpace=wrap;html=1;dashed=1;dashPattern=1 1;" parent="3iHz2U1iMEFSkPB0zB9P-1" vertex="1">
          <mxGeometry x="225" y="200" width="20" height="10" as="geometry" />
        </mxCell>
        <mxCell id="NPgQiEpecLrd4a7U6wOF-38" value="" style="ellipse;whiteSpace=wrap;html=1;dashed=1;dashPattern=1 1;" parent="3iHz2U1iMEFSkPB0zB9P-1" vertex="1">
          <mxGeometry x="165" y="200" width="20" height="10" as="geometry" />
        </mxCell>
        <mxCell id="NPgQiEpecLrd4a7U6wOF-39" value="" style="ellipse;whiteSpace=wrap;html=1;dashed=1;dashPattern=1 1;" parent="3iHz2U1iMEFSkPB0zB9P-1" vertex="1">
          <mxGeometry x="125" y="230" width="20" height="10" as="geometry" />
        </mxCell>
        <mxCell id="NPgQiEpecLrd4a7U6wOF-40" value="" style="ellipse;whiteSpace=wrap;html=1;dashed=1;dashPattern=1 1;" parent="3iHz2U1iMEFSkPB0zB9P-1" vertex="1">
          <mxGeometry x="375" y="200" width="20" height="10" as="geometry" />
        </mxCell>
        <mxCell id="NPgQiEpecLrd4a7U6wOF-41" value="" style="ellipse;whiteSpace=wrap;html=1;dashed=1;dashPattern=1 1;" parent="3iHz2U1iMEFSkPB0zB9P-1" vertex="1">
          <mxGeometry x="165" y="230" width="20" height="10" as="geometry" />
        </mxCell>
        <mxCell id="NPgQiEpecLrd4a7U6wOF-42" value="" style="ellipse;whiteSpace=wrap;html=1;dashed=1;dashPattern=1 1;" parent="3iHz2U1iMEFSkPB0zB9P-1" vertex="1">
          <mxGeometry x="375" y="230" width="20" height="10" as="geometry" />
        </mxCell>
        <mxCell id="NPgQiEpecLrd4a7U6wOF-43" value="" style="ellipse;whiteSpace=wrap;html=1;dashed=1;dashPattern=1 1;" parent="3iHz2U1iMEFSkPB0zB9P-1" vertex="1">
          <mxGeometry x="225" y="230" width="20" height="10" as="geometry" />
        </mxCell>
        <mxCell id="NPgQiEpecLrd4a7U6wOF-44" value="" style="endArrow=none;dashed=1;html=1;dashPattern=1 1;strokeWidth=1;entryX=0.5;entryY=1;entryDx=0;entryDy=0;exitX=0.5;exitY=0;exitDx=0;exitDy=0;" parent="3iHz2U1iMEFSkPB0zB9P-1" source="NPgQiEpecLrd4a7U6wOF-39" target="NPgQiEpecLrd4a7U6wOF-38" edge="1">
          <mxGeometry width="50" height="50" relative="1" as="geometry">
            <mxPoint x="129" y="230" as="sourcePoint" />
            <mxPoint x="179" y="180" as="targetPoint" />
          </mxGeometry>
        </mxCell>
        <mxCell id="NPgQiEpecLrd4a7U6wOF-45" value="" style="endArrow=none;dashed=1;html=1;dashPattern=1 1;strokeWidth=1;entryX=0.5;entryY=0;entryDx=0;entryDy=0;exitX=0.5;exitY=1;exitDx=0;exitDy=0;" parent="3iHz2U1iMEFSkPB0zB9P-1" source="NPgQiEpecLrd4a7U6wOF-36" target="NPgQiEpecLrd4a7U6wOF-41" edge="1">
          <mxGeometry width="50" height="50" relative="1" as="geometry">
            <mxPoint x="145" y="240" as="sourcePoint" />
            <mxPoint x="185" y="220" as="targetPoint" />
          </mxGeometry>
        </mxCell>
        <mxCell id="NPgQiEpecLrd4a7U6wOF-46" value="" style="endArrow=none;dashed=1;html=1;dashPattern=1 1;strokeWidth=1;entryX=0.5;entryY=1;entryDx=0;entryDy=0;" parent="3iHz2U1iMEFSkPB0zB9P-1" target="NPgQiEpecLrd4a7U6wOF-37" edge="1">
          <mxGeometry width="50" height="50" relative="1" as="geometry">
            <mxPoint x="140" y="230" as="sourcePoint" />
            <mxPoint x="195" y="230" as="targetPoint" />
          </mxGeometry>
        </mxCell>
        <mxCell id="NPgQiEpecLrd4a7U6wOF-47" value="" style="endArrow=none;dashed=1;html=1;dashPattern=1 1;strokeWidth=1;entryX=0.5;entryY=1;entryDx=0;entryDy=0;" parent="3iHz2U1iMEFSkPB0zB9P-1" target="NPgQiEpecLrd4a7U6wOF-40" edge="1">
          <mxGeometry width="50" height="50" relative="1" as="geometry">
            <mxPoint x="140" y="230" as="sourcePoint" />
            <mxPoint x="205" y="240" as="targetPoint" />
          </mxGeometry>
        </mxCell>
        <mxCell id="NPgQiEpecLrd4a7U6wOF-48" value="" style="endArrow=none;dashed=1;html=1;dashPattern=1 1;strokeWidth=1;entryX=0.5;entryY=1;entryDx=0;entryDy=0;" parent="3iHz2U1iMEFSkPB0zB9P-1" target="NPgQiEpecLrd4a7U6wOF-38" edge="1">
          <mxGeometry width="50" height="50" relative="1" as="geometry">
            <mxPoint x="175" y="230" as="sourcePoint" />
            <mxPoint x="215" y="250" as="targetPoint" />
          </mxGeometry>
        </mxCell>
        <mxCell id="NPgQiEpecLrd4a7U6wOF-49" value="" style="endArrow=none;dashed=1;html=1;dashPattern=1 1;strokeWidth=1;entryX=1;entryY=1;entryDx=0;entryDy=0;exitX=0.5;exitY=0;exitDx=0;exitDy=0;" parent="3iHz2U1iMEFSkPB0zB9P-1" source="NPgQiEpecLrd4a7U6wOF-41" target="NPgQiEpecLrd4a7U6wOF-40" edge="1">
          <mxGeometry width="50" height="50" relative="1" as="geometry">
            <mxPoint x="185" y="280" as="sourcePoint" />
            <mxPoint x="225" y="260" as="targetPoint" />
          </mxGeometry>
        </mxCell>
        <mxCell id="NPgQiEpecLrd4a7U6wOF-50" value="" style="endArrow=none;dashed=1;html=1;dashPattern=1 1;strokeWidth=1;entryX=0.5;entryY=1;entryDx=0;entryDy=0;" parent="3iHz2U1iMEFSkPB0zB9P-1" target="NPgQiEpecLrd4a7U6wOF-37" edge="1">
          <mxGeometry width="50" height="50" relative="1" as="geometry">
            <mxPoint x="180" y="230" as="sourcePoint" />
            <mxPoint x="235" y="270" as="targetPoint" />
          </mxGeometry>
        </mxCell>
        <mxCell id="NPgQiEpecLrd4a7U6wOF-51" value="" style="endArrow=none;dashed=1;html=1;dashPattern=1 1;strokeWidth=1;exitX=0.5;exitY=0;exitDx=0;exitDy=0;" parent="3iHz2U1iMEFSkPB0zB9P-1" source="NPgQiEpecLrd4a7U6wOF-39" edge="1">
          <mxGeometry width="50" height="50" relative="1" as="geometry">
            <mxPoint x="205" y="300" as="sourcePoint" />
            <mxPoint x="135" y="210" as="targetPoint" />
          </mxGeometry>
        </mxCell>
        <mxCell id="NPgQiEpecLrd4a7U6wOF-52" value="" style="endArrow=none;dashed=1;html=1;dashPattern=1 1;strokeWidth=1;exitX=0.5;exitY=0;exitDx=0;exitDy=0;" parent="3iHz2U1iMEFSkPB0zB9P-1" source="NPgQiEpecLrd4a7U6wOF-43" edge="1">
          <mxGeometry width="50" height="50" relative="1" as="geometry">
            <mxPoint x="215" y="310" as="sourcePoint" />
            <mxPoint x="140" y="210" as="targetPoint" />
          </mxGeometry>
        </mxCell>
        <mxCell id="NPgQiEpecLrd4a7U6wOF-53" value="" style="endArrow=none;dashed=1;html=1;dashPattern=1 1;strokeWidth=1;entryX=0.5;entryY=1;entryDx=0;entryDy=0;exitX=0.5;exitY=0;exitDx=0;exitDy=0;" parent="3iHz2U1iMEFSkPB0zB9P-1" source="NPgQiEpecLrd4a7U6wOF-43" target="NPgQiEpecLrd4a7U6wOF-38" edge="1">
          <mxGeometry width="50" height="50" relative="1" as="geometry">
            <mxPoint x="225" y="320" as="sourcePoint" />
            <mxPoint x="265" y="300" as="targetPoint" />
          </mxGeometry>
        </mxCell>
        <mxCell id="NPgQiEpecLrd4a7U6wOF-54" value="" style="endArrow=none;dashed=1;html=1;dashPattern=1 1;strokeWidth=1;entryX=0;entryY=0;entryDx=0;entryDy=0;" parent="3iHz2U1iMEFSkPB0zB9P-1" target="NPgQiEpecLrd4a7U6wOF-35" edge="1">
          <mxGeometry width="50" height="50" relative="1" as="geometry">
            <mxPoint x="235" y="230" as="sourcePoint" />
            <mxPoint x="275" y="310" as="targetPoint" />
          </mxGeometry>
        </mxCell>
        <mxCell id="NPgQiEpecLrd4a7U6wOF-55" value="" style="endArrow=none;dashed=1;html=1;dashPattern=1 1;strokeWidth=1;exitX=0.5;exitY=0;exitDx=0;exitDy=0;" parent="3iHz2U1iMEFSkPB0zB9P-1" source="NPgQiEpecLrd4a7U6wOF-43" edge="1">
          <mxGeometry width="50" height="50" relative="1" as="geometry">
            <mxPoint x="245" y="340" as="sourcePoint" />
            <mxPoint x="390" y="210" as="targetPoint" />
          </mxGeometry>
        </mxCell>
        <mxCell id="NPgQiEpecLrd4a7U6wOF-56" value="" style="endArrow=none;dashed=1;html=1;dashPattern=1 1;strokeWidth=1;exitX=0.5;exitY=0;exitDx=0;exitDy=0;" parent="3iHz2U1iMEFSkPB0zB9P-1" source="NPgQiEpecLrd4a7U6wOF-42" edge="1">
          <mxGeometry width="50" height="50" relative="1" as="geometry">
            <mxPoint x="255" y="350" as="sourcePoint" />
            <mxPoint x="140" y="210" as="targetPoint" />
          </mxGeometry>
        </mxCell>
        <mxCell id="NPgQiEpecLrd4a7U6wOF-57" value="" style="endArrow=none;dashed=1;html=1;dashPattern=1 1;strokeWidth=1;exitX=0.5;exitY=0;exitDx=0;exitDy=0;" parent="3iHz2U1iMEFSkPB0zB9P-1" source="NPgQiEpecLrd4a7U6wOF-42" edge="1">
          <mxGeometry width="50" height="50" relative="1" as="geometry">
            <mxPoint x="265" y="360" as="sourcePoint" />
            <mxPoint x="180" y="210" as="targetPoint" />
          </mxGeometry>
        </mxCell>
        <mxCell id="NPgQiEpecLrd4a7U6wOF-58" value="" style="endArrow=none;dashed=1;html=1;dashPattern=1 1;strokeWidth=1;entryX=0.5;entryY=1;entryDx=0;entryDy=0;" parent="3iHz2U1iMEFSkPB0zB9P-1" target="NPgQiEpecLrd4a7U6wOF-37" edge="1">
          <mxGeometry width="50" height="50" relative="1" as="geometry">
            <mxPoint x="380" y="230" as="sourcePoint" />
            <mxPoint x="315" y="350" as="targetPoint" />
          </mxGeometry>
        </mxCell>
        <mxCell id="NPgQiEpecLrd4a7U6wOF-59" value="" style="endArrow=none;dashed=1;html=1;dashPattern=1 1;strokeWidth=1;exitX=0.5;exitY=0;exitDx=0;exitDy=0;" parent="3iHz2U1iMEFSkPB0zB9P-1" source="NPgQiEpecLrd4a7U6wOF-42" edge="1">
          <mxGeometry width="50" height="50" relative="1" as="geometry">
            <mxPoint x="145" y="240" as="sourcePoint" />
            <mxPoint x="385" y="210" as="targetPoint" />
          </mxGeometry>
        </mxCell>
        <mxCell id="NPgQiEpecLrd4a7U6wOF-60" value="" style="endArrow=none;dashed=1;html=1;dashPattern=1 1;strokeWidth=1;entryX=0.5;entryY=0;entryDx=0;entryDy=0;exitX=0.5;exitY=1;exitDx=0;exitDy=0;" parent="3iHz2U1iMEFSkPB0zB9P-1" source="NPgQiEpecLrd4a7U6wOF-27" target="NPgQiEpecLrd4a7U6wOF-36" edge="1">
          <mxGeometry width="50" height="50" relative="1" as="geometry">
            <mxPoint x="-30" y="220" as="sourcePoint" />
            <mxPoint x="-10" y="270" as="targetPoint" />
          </mxGeometry>
        </mxCell>
        <mxCell id="NPgQiEpecLrd4a7U6wOF-61" value="" style="endArrow=none;dashed=1;html=1;dashPattern=1 1;strokeWidth=1;exitX=0.5;exitY=0;exitDx=0;exitDy=0;entryX=0.5;entryY=1;entryDx=0;entryDy=0;" parent="3iHz2U1iMEFSkPB0zB9P-1" source="NPgQiEpecLrd4a7U6wOF-38" target="NPgQiEpecLrd4a7U6wOF-28" edge="1">
          <mxGeometry width="50" height="50" relative="1" as="geometry">
            <mxPoint x="-20" y="230" as="sourcePoint" />
            <mxPoint y="280" as="targetPoint" />
          </mxGeometry>
        </mxCell>
        <mxCell id="NPgQiEpecLrd4a7U6wOF-62" value="" style="endArrow=none;dashed=1;html=1;dashPattern=1 1;strokeWidth=1;entryX=0.5;entryY=0;entryDx=0;entryDy=0;exitX=0.5;exitY=1;exitDx=0;exitDy=0;" parent="3iHz2U1iMEFSkPB0zB9P-1" source="NPgQiEpecLrd4a7U6wOF-29" target="NPgQiEpecLrd4a7U6wOF-37" edge="1">
          <mxGeometry width="50" height="50" relative="1" as="geometry">
            <mxPoint x="-10" y="240" as="sourcePoint" />
            <mxPoint x="10" y="290" as="targetPoint" />
          </mxGeometry>
        </mxCell>
        <mxCell id="NPgQiEpecLrd4a7U6wOF-63" value="" style="endArrow=none;dashed=1;html=1;dashPattern=1 1;strokeWidth=1;entryX=0.5;entryY=0;entryDx=0;entryDy=0;exitX=0.5;exitY=1;exitDx=0;exitDy=0;" parent="3iHz2U1iMEFSkPB0zB9P-1" source="NPgQiEpecLrd4a7U6wOF-32" target="NPgQiEpecLrd4a7U6wOF-40" edge="1">
          <mxGeometry width="50" height="50" relative="1" as="geometry">
            <mxPoint y="250" as="sourcePoint" />
            <mxPoint x="20" y="300" as="targetPoint" />
          </mxGeometry>
        </mxCell>
        <mxCell id="NPgQiEpecLrd4a7U6wOF-64" value="" style="endArrow=none;dashed=1;html=1;dashPattern=1 1;strokeWidth=1;entryX=0.5;entryY=0;entryDx=0;entryDy=0;exitX=0.5;exitY=1;exitDx=0;exitDy=0;" parent="3iHz2U1iMEFSkPB0zB9P-1" source="NPgQiEpecLrd4a7U6wOF-39" target="NPgQiEpecLrd4a7U6wOF-19" edge="1">
          <mxGeometry width="50" height="50" relative="1" as="geometry">
            <mxPoint x="10" y="260" as="sourcePoint" />
            <mxPoint x="30" y="310" as="targetPoint" />
          </mxGeometry>
        </mxCell>
        <mxCell id="NPgQiEpecLrd4a7U6wOF-65" value="" style="endArrow=none;dashed=1;html=1;dashPattern=1 1;strokeWidth=1;entryX=0.5;entryY=0;entryDx=0;entryDy=0;exitX=0.5;exitY=1;exitDx=0;exitDy=0;" parent="3iHz2U1iMEFSkPB0zB9P-1" source="NPgQiEpecLrd4a7U6wOF-41" target="NPgQiEpecLrd4a7U6wOF-19" edge="1">
          <mxGeometry width="50" height="50" relative="1" as="geometry">
            <mxPoint x="20" y="270" as="sourcePoint" />
            <mxPoint x="40" y="320" as="targetPoint" />
          </mxGeometry>
        </mxCell>
        <mxCell id="NPgQiEpecLrd4a7U6wOF-66" value="" style="endArrow=none;dashed=1;html=1;dashPattern=1 1;strokeWidth=1;entryX=0.5;entryY=0;entryDx=0;entryDy=0;exitX=0.5;exitY=1;exitDx=0;exitDy=0;" parent="3iHz2U1iMEFSkPB0zB9P-1" source="NPgQiEpecLrd4a7U6wOF-43" target="NPgQiEpecLrd4a7U6wOF-19" edge="1">
          <mxGeometry width="50" height="50" relative="1" as="geometry">
            <mxPoint x="30" y="280" as="sourcePoint" />
            <mxPoint x="50" y="330" as="targetPoint" />
          </mxGeometry>
        </mxCell>
        <mxCell id="NPgQiEpecLrd4a7U6wOF-67" value="" style="endArrow=none;dashed=1;html=1;dashPattern=1 1;strokeWidth=1;entryX=0.5;entryY=0;entryDx=0;entryDy=0;exitX=0.5;exitY=1;exitDx=0;exitDy=0;" parent="3iHz2U1iMEFSkPB0zB9P-1" source="NPgQiEpecLrd4a7U6wOF-42" target="NPgQiEpecLrd4a7U6wOF-19" edge="1">
          <mxGeometry width="50" height="50" relative="1" as="geometry">
            <mxPoint x="40" y="290" as="sourcePoint" />
            <mxPoint x="60" y="340" as="targetPoint" />
          </mxGeometry>
        </mxCell>
        <mxCell id="NPgQiEpecLrd4a7U6wOF-68" value="" style="endArrow=none;dashed=1;html=1;dashPattern=1 1;strokeWidth=1;exitX=0.5;exitY=1;exitDx=0;exitDy=0;" parent="3iHz2U1iMEFSkPB0zB9P-1" source="NPgQiEpecLrd4a7U6wOF-39" edge="1">
          <mxGeometry width="50" height="50" relative="1" as="geometry">
            <mxPoint x="50" y="300" as="sourcePoint" />
            <mxPoint x="180" y="250" as="targetPoint" />
          </mxGeometry>
        </mxCell>
        <mxCell id="NPgQiEpecLrd4a7U6wOF-69" value="" style="endArrow=none;dashed=1;html=1;dashPattern=1 1;strokeWidth=1;entryX=0.5;entryY=1;entryDx=0;entryDy=0;" parent="3iHz2U1iMEFSkPB0zB9P-1" target="NPgQiEpecLrd4a7U6wOF-41" edge="1">
          <mxGeometry width="50" height="50" relative="1" as="geometry">
            <mxPoint x="175" y="250" as="sourcePoint" />
            <mxPoint x="80" y="360" as="targetPoint" />
          </mxGeometry>
        </mxCell>
        <mxCell id="NPgQiEpecLrd4a7U6wOF-70" value="" style="endArrow=none;dashed=1;html=1;dashPattern=1 1;strokeWidth=1;entryX=0.5;entryY=1;entryDx=0;entryDy=0;" parent="3iHz2U1iMEFSkPB0zB9P-1" target="NPgQiEpecLrd4a7U6wOF-43" edge="1">
          <mxGeometry width="50" height="50" relative="1" as="geometry">
            <mxPoint x="170" y="250" as="sourcePoint" />
            <mxPoint x="100" y="380" as="targetPoint" />
          </mxGeometry>
        </mxCell>
        <mxCell id="NPgQiEpecLrd4a7U6wOF-71" value="" style="endArrow=none;dashed=1;html=1;dashPattern=1 1;strokeWidth=1;exitX=0.5;exitY=0;exitDx=0;exitDy=0;" parent="3iHz2U1iMEFSkPB0zB9P-1" source="NPgQiEpecLrd4a7U6wOF-21" edge="1">
          <mxGeometry width="50" height="50" relative="1" as="geometry">
            <mxPoint x="90" y="340" as="sourcePoint" />
            <mxPoint x="235" y="240" as="targetPoint" />
          </mxGeometry>
        </mxCell>
        <mxCell id="NPgQiEpecLrd4a7U6wOF-72" value="" style="endArrow=none;dashed=1;html=1;dashPattern=1 1;strokeWidth=1;exitX=0.5;exitY=0;exitDx=0;exitDy=0;" parent="3iHz2U1iMEFSkPB0zB9P-1" source="NPgQiEpecLrd4a7U6wOF-21" edge="1">
          <mxGeometry width="50" height="50" relative="1" as="geometry">
            <mxPoint x="100" y="350" as="sourcePoint" />
            <mxPoint x="140" y="240" as="targetPoint" />
          </mxGeometry>
        </mxCell>
        <mxCell id="NPgQiEpecLrd4a7U6wOF-73" value="" style="endArrow=none;dashed=1;html=1;dashPattern=1 1;strokeWidth=1;exitX=0.5;exitY=0;exitDx=0;exitDy=0;entryX=0.5;entryY=1;entryDx=0;entryDy=0;" parent="3iHz2U1iMEFSkPB0zB9P-1" source="NPgQiEpecLrd4a7U6wOF-21" target="NPgQiEpecLrd4a7U6wOF-41" edge="1">
          <mxGeometry width="50" height="50" relative="1" as="geometry">
            <mxPoint x="110" y="360" as="sourcePoint" />
            <mxPoint x="180" y="310" as="targetPoint" />
          </mxGeometry>
        </mxCell>
        <mxCell id="NPgQiEpecLrd4a7U6wOF-74" value="" style="endArrow=none;dashed=1;html=1;dashPattern=1 1;strokeWidth=1;exitX=0.5;exitY=0;exitDx=0;exitDy=0;" parent="3iHz2U1iMEFSkPB0zB9P-1" source="NPgQiEpecLrd4a7U6wOF-21" edge="1">
          <mxGeometry width="50" height="50" relative="1" as="geometry">
            <mxPoint x="230" y="250" as="sourcePoint" />
            <mxPoint x="380" y="240" as="targetPoint" />
          </mxGeometry>
        </mxCell>
        <mxCell id="NPgQiEpecLrd4a7U6wOF-75" value="" style="endArrow=none;dashed=1;html=1;dashPattern=1 1;strokeWidth=1;exitX=0.5;exitY=0;exitDx=0;exitDy=0;" parent="3iHz2U1iMEFSkPB0zB9P-1" source="NPgQiEpecLrd4a7U6wOF-24" edge="1">
          <mxGeometry width="50" height="50" relative="1" as="geometry">
            <mxPoint x="130" y="380" as="sourcePoint" />
            <mxPoint x="385" y="240" as="targetPoint" />
          </mxGeometry>
        </mxCell>
        <mxCell id="NPgQiEpecLrd4a7U6wOF-76" value="" style="endArrow=none;dashed=1;html=1;dashPattern=1 1;strokeWidth=1;entryX=0.5;entryY=0;entryDx=0;entryDy=0;exitX=0.5;exitY=1;exitDx=0;exitDy=0;" parent="3iHz2U1iMEFSkPB0zB9P-1" source="NPgQiEpecLrd4a7U6wOF-43" target="NPgQiEpecLrd4a7U6wOF-24" edge="1">
          <mxGeometry width="50" height="50" relative="1" as="geometry">
            <mxPoint x="515" y="150" as="sourcePoint" />
            <mxPoint x="380" y="250" as="targetPoint" />
          </mxGeometry>
        </mxCell>
        <mxCell id="NPgQiEpecLrd4a7U6wOF-77" value="" style="endArrow=none;dashed=1;html=1;dashPattern=1 1;strokeWidth=1;" parent="3iHz2U1iMEFSkPB0zB9P-1" edge="1">
          <mxGeometry width="50" height="50" relative="1" as="geometry">
            <mxPoint x="180" y="240" as="sourcePoint" />
            <mxPoint x="390" y="250" as="targetPoint" />
          </mxGeometry>
        </mxCell>
        <mxCell id="NPgQiEpecLrd4a7U6wOF-78" value="" style="endArrow=none;dashed=1;html=1;dashPattern=1 1;strokeWidth=1;" parent="3iHz2U1iMEFSkPB0zB9P-1" edge="1">
          <mxGeometry width="50" height="50" relative="1" as="geometry">
            <mxPoint x="140" y="240" as="sourcePoint" />
            <mxPoint x="390" y="250" as="targetPoint" />
          </mxGeometry>
        </mxCell>
        <mxCell id="NPgQiEpecLrd4a7U6wOF-79" value="" style="endArrow=none;html=1;strokeWidth=1;" parent="3iHz2U1iMEFSkPB0zB9P-1" edge="1">
          <mxGeometry width="50" height="50" relative="1" as="geometry">
            <mxPoint x="205" y="360" as="sourcePoint" />
            <mxPoint x="205" y="350" as="targetPoint" />
          </mxGeometry>
        </mxCell>
        <mxCell id="NPgQiEpecLrd4a7U6wOF-80" value="" style="endArrow=none;html=1;strokeWidth=1;" parent="3iHz2U1iMEFSkPB0zB9P-1" edge="1">
          <mxGeometry width="50" height="50" relative="1" as="geometry">
            <mxPoint x="385" y="350" as="sourcePoint" />
            <mxPoint x="315" y="350" as="targetPoint" />
          </mxGeometry>
        </mxCell>
        <mxCell id="NPgQiEpecLrd4a7U6wOF-81" value="" style="endArrow=none;html=1;strokeWidth=1;entryX=0.5;entryY=1;entryDx=0;entryDy=0;" parent="3iHz2U1iMEFSkPB0zB9P-1" target="NPgQiEpecLrd4a7U6wOF-6" edge="1">
          <mxGeometry width="50" height="50" relative="1" as="geometry">
            <mxPoint x="385" y="350" as="sourcePoint" />
            <mxPoint x="495" y="358" as="targetPoint" />
          </mxGeometry>
        </mxCell>
        <mxCell id="NPgQiEpecLrd4a7U6wOF-82" value="" style="endArrow=none;html=1;strokeWidth=1;entryX=0.5;entryY=1;entryDx=0;entryDy=0;" parent="3iHz2U1iMEFSkPB0zB9P-1" edge="1">
          <mxGeometry width="50" height="50" relative="1" as="geometry">
            <mxPoint x="315" y="350" as="sourcePoint" />
            <mxPoint x="314.5" y="340" as="targetPoint" />
          </mxGeometry>
        </mxCell>
        <mxCell id="NPgQiEpecLrd4a7U6wOF-83" value="" style="endArrow=none;html=1;strokeWidth=1;entryX=0.5;entryY=1;entryDx=0;entryDy=0;" parent="3iHz2U1iMEFSkPB0zB9P-1" edge="1">
          <mxGeometry width="50" height="50" relative="1" as="geometry">
            <mxPoint x="175" y="350" as="sourcePoint" />
            <mxPoint x="174.5" y="340" as="targetPoint" />
          </mxGeometry>
        </mxCell>
        <mxCell id="NPgQiEpecLrd4a7U6wOF-84" value="" style="endArrow=none;html=1;strokeWidth=1;entryX=0.5;entryY=1;entryDx=0;entryDy=0;" parent="3iHz2U1iMEFSkPB0zB9P-1" edge="1">
          <mxGeometry width="50" height="50" relative="1" as="geometry">
            <mxPoint x="239" y="350" as="sourcePoint" />
            <mxPoint x="239" y="340" as="targetPoint" />
          </mxGeometry>
        </mxCell>
        <mxCell id="NPgQiEpecLrd4a7U6wOF-85" value="" style="endArrow=none;html=1;strokeWidth=1;" parent="3iHz2U1iMEFSkPB0zB9P-1" edge="1">
          <mxGeometry width="50" height="50" relative="1" as="geometry">
            <mxPoint x="240" y="350" as="sourcePoint" />
            <mxPoint x="175" y="350" as="targetPoint" />
          </mxGeometry>
        </mxCell>
        <mxCell id="NPgQiEpecLrd4a7U6wOF-86" value="" style="endArrow=none;html=1;strokeWidth=1;" parent="3iHz2U1iMEFSkPB0zB9P-1" edge="1">
          <mxGeometry width="50" height="50" relative="1" as="geometry">
            <mxPoint x="349" y="360" as="sourcePoint" />
            <mxPoint x="349" y="350" as="targetPoint" />
          </mxGeometry>
        </mxCell>
        <mxCell id="NPgQiEpecLrd4a7U6wOF-87" value="NSP" style="text;html=1;strokeColor=none;fillColor=none;align=center;verticalAlign=middle;whiteSpace=wrap;rounded=0;dashed=1;dashPattern=1 1;" parent="3iHz2U1iMEFSkPB0zB9P-1" vertex="1">
          <mxGeometry x="115" y="100" width="40" height="20" as="geometry" />
        </mxCell>
        <mxCell id="NPgQiEpecLrd4a7U6wOF-88" value="MLM" style="text;html=1;strokeColor=none;fillColor=none;align=center;verticalAlign=middle;whiteSpace=wrap;rounded=0;dashed=1;dashPattern=1 1;" parent="3iHz2U1iMEFSkPB0zB9P-1" vertex="1">
          <mxGeometry x="330" y="100" width="40" height="20" as="geometry" />
        </mxCell>
        <mxCell id="NPgQiEpecLrd4a7U6wOF-176" value="MLM" style="text;html=1;strokeColor=none;fillColor=none;align=center;verticalAlign=middle;whiteSpace=wrap;rounded=0;dashed=1;dashPattern=1 1;" parent="3iHz2U1iMEFSkPB0zB9P-1" vertex="1">
          <mxGeometry x="220" y="100" width="40" height="20" as="geometry" />
        </mxCell>
        <mxCell id="NPgQiEpecLrd4a7U6wOF-177" value="IsNext/NotNext Sentence A and B Pair&amp;nbsp;" style="text;html=1;strokeColor=none;fillColor=none;align=center;verticalAlign=middle;whiteSpace=wrap;rounded=0;dashed=1;dashPattern=1 1;" parent="3iHz2U1iMEFSkPB0zB9P-1" vertex="1">
          <mxGeometry x="145" y="410" width="230" height="20" as="geometry" />
        </mxCell>
        <mxCell id="NPgQiEpecLrd4a7U6wOF-178" value="Masked Sentence A" style="text;html=1;strokeColor=none;fillColor=none;align=center;verticalAlign=middle;whiteSpace=wrap;rounded=0;dashed=1;dashPattern=1 1;" parent="3iHz2U1iMEFSkPB0zB9P-1" vertex="1">
          <mxGeometry x="135" y="360" width="140" height="20" as="geometry" />
        </mxCell>
        <mxCell id="NPgQiEpecLrd4a7U6wOF-179" value="" style="shape=flexArrow;endArrow=classic;html=1;strokeWidth=1;" parent="3iHz2U1iMEFSkPB0zB9P-1" edge="1">
          <mxGeometry width="50" height="50" relative="1" as="geometry">
            <mxPoint x="254.5" y="410" as="sourcePoint" />
            <mxPoint x="254.5" y="380" as="targetPoint" />
          </mxGeometry>
        </mxCell>
        <mxCell id="NPgQiEpecLrd4a7U6wOF-180" value="Masked Sentence B" style="text;html=1;strokeColor=none;fillColor=none;align=center;verticalAlign=middle;whiteSpace=wrap;rounded=0;dashed=1;dashPattern=1 1;" parent="3iHz2U1iMEFSkPB0zB9P-1" vertex="1">
          <mxGeometry x="280" y="360" width="140" height="20" as="geometry" />
        </mxCell>
        <mxCell id="NPgQiEpecLrd4a7U6wOF-181" value="&lt;font style=&quot;font-size: 6px&quot;&gt;&lt;font&gt;E&lt;/font&gt;&lt;sub&gt;[CLS&lt;font&gt;]&lt;/font&gt;&lt;/sub&gt;&lt;/font&gt;" style="text;html=1;strokeColor=none;fillColor=none;align=center;verticalAlign=middle;whiteSpace=wrap;rounded=0;dashed=1;dashPattern=1 1;fontSize=8;" parent="3iHz2U1iMEFSkPB0zB9P-1" vertex="1">
          <mxGeometry x="110" y="250" width="50" height="20" as="geometry" />
        </mxCell>
      </root>
    </mxGraphModel>
  </diagram>
  <diagram id="wJ79t9ASvro2GImi-0or" name="Page-3">
    <mxGraphModel dx="1047" dy="423" grid="1" gridSize="10" guides="1" tooltips="1" connect="1" arrows="1" fold="1" page="1" pageScale="1" pageWidth="827" pageHeight="1169" math="0" shadow="0">
      <root>
        <mxCell id="H1zRIuK2jRf7zOJqtdYD-0" />
        <mxCell id="H1zRIuK2jRf7zOJqtdYD-1" parent="H1zRIuK2jRf7zOJqtdYD-0" />
        <mxCell id="e81Prs7hUu-VgDcKT_vm-0" value="" style="endArrow=none;html=1;strokeWidth=3;" edge="1" parent="H1zRIuK2jRf7zOJqtdYD-1">
          <mxGeometry width="50" height="50" relative="1" as="geometry">
            <mxPoint x="30" y="160" as="sourcePoint" />
            <mxPoint x="750" y="160" as="targetPoint" />
          </mxGeometry>
        </mxCell>
        <mxCell id="e81Prs7hUu-VgDcKT_vm-1" value="E&lt;sub&gt;[CLS]&lt;/sub&gt;" style="rounded=0;whiteSpace=wrap;html=1;" vertex="1" parent="H1zRIuK2jRf7zOJqtdYD-1">
          <mxGeometry x="200" y="200" width="40" height="40" as="geometry" />
        </mxCell>
        <mxCell id="e81Prs7hUu-VgDcKT_vm-17" value="&lt;span style=&quot;color: rgb(0 , 0 , 0) ; font-family: &amp;#34;helvetica&amp;#34; ; font-size: 12px ; font-style: normal ; font-weight: 400 ; letter-spacing: normal ; text-align: center ; text-indent: 0px ; text-transform: none ; word-spacing: 0px ; background-color: rgb(248 , 249 , 250) ; display: inline ; float: none&quot;&gt;E&lt;/span&gt;&lt;sub style=&quot;color: rgb(0 , 0 , 0) ; font-family: &amp;#34;helvetica&amp;#34; ; font-style: normal ; font-weight: 400 ; letter-spacing: normal ; text-align: center ; text-indent: 0px ; text-transform: none ; word-spacing: 0px ; background-color: rgb(248 , 249 , 250)&quot;&gt;[SEP]&lt;/sub&gt;" style="rounded=0;whiteSpace=wrap;html=1;" vertex="1" parent="H1zRIuK2jRf7zOJqtdYD-1">
          <mxGeometry x="700" y="200" width="40" height="40" as="geometry" />
        </mxCell>
        <mxCell id="e81Prs7hUu-VgDcKT_vm-18" value="&lt;span&gt;E&lt;/span&gt;&lt;sub&gt;现&lt;/sub&gt;" style="rounded=0;whiteSpace=wrap;html=1;" vertex="1" parent="H1zRIuK2jRf7zOJqtdYD-1">
          <mxGeometry x="650" y="200" width="40" height="40" as="geometry" />
        </mxCell>
        <mxCell id="e81Prs7hUu-VgDcKT_vm-19" value="&lt;span&gt;E&lt;/span&gt;&lt;sub&gt;实&lt;/sub&gt;" style="rounded=0;whiteSpace=wrap;html=1;" vertex="1" parent="H1zRIuK2jRf7zOJqtdYD-1">
          <mxGeometry x="600" y="200" width="40" height="40" as="geometry" />
        </mxCell>
        <mxCell id="e81Prs7hUu-VgDcKT_vm-20" value="&lt;span&gt;E&lt;/span&gt;&lt;sub&gt;么&lt;/sub&gt;" style="rounded=0;whiteSpace=wrap;html=1;" vertex="1" parent="H1zRIuK2jRf7zOJqtdYD-1">
          <mxGeometry x="550" y="200" width="40" height="40" as="geometry" />
        </mxCell>
        <mxCell id="e81Prs7hUu-VgDcKT_vm-21" value="E&lt;span style=&quot;font-size: 10px&quot;&gt;怎&lt;/span&gt;" style="rounded=0;whiteSpace=wrap;html=1;" vertex="1" parent="H1zRIuK2jRf7zOJqtdYD-1">
          <mxGeometry x="500" y="200" width="40" height="40" as="geometry" />
        </mxCell>
        <mxCell id="e81Prs7hUu-VgDcKT_vm-22" value="&lt;span&gt;E&lt;/span&gt;&lt;sub&gt;[SEP]&lt;/sub&gt;" style="rounded=0;whiteSpace=wrap;html=1;" vertex="1" parent="H1zRIuK2jRf7zOJqtdYD-1">
          <mxGeometry x="450" y="200" width="40" height="40" as="geometry" />
        </mxCell>
        <mxCell id="e81Prs7hUu-VgDcKT_vm-23" value="E&lt;span style=&quot;font-size: 10px&quot;&gt;&lt;sub&gt;么&lt;/sub&gt;&lt;/span&gt;" style="rounded=0;whiteSpace=wrap;html=1;" vertex="1" parent="H1zRIuK2jRf7zOJqtdYD-1">
          <mxGeometry x="400" y="200" width="40" height="40" as="geometry" />
        </mxCell>
        <mxCell id="e81Prs7hUu-VgDcKT_vm-24" value="&lt;span style=&quot;color: rgb(0 , 0 , 0) ; font-family: &amp;#34;helvetica&amp;#34; ; font-size: 12px ; font-style: normal ; font-weight: 400 ; letter-spacing: normal ; text-align: center ; text-indent: 0px ; text-transform: none ; word-spacing: 0px ; background-color: rgb(248 , 249 , 250) ; display: inline ; float: none&quot;&gt;E&lt;/span&gt;&lt;sub style=&quot;color: rgb(0 , 0 , 0) ; font-family: &amp;#34;helvetica&amp;#34; ; font-style: normal ; font-weight: 400 ; letter-spacing: normal ; text-align: center ; text-indent: 0px ; text-transform: none ; word-spacing: 0px ; background-color: rgb(248 , 249 , 250)&quot;&gt;什&lt;/sub&gt;" style="rounded=0;whiteSpace=wrap;html=1;" vertex="1" parent="H1zRIuK2jRf7zOJqtdYD-1">
          <mxGeometry x="350" y="200" width="40" height="40" as="geometry" />
        </mxCell>
        <mxCell id="e81Prs7hUu-VgDcKT_vm-25" value="&lt;span style=&quot;color: rgb(0 , 0 , 0) ; font-family: &amp;#34;helvetica&amp;#34; ; font-size: 12px ; font-style: normal ; font-weight: 400 ; letter-spacing: normal ; text-align: center ; text-indent: 0px ; text-transform: none ; word-spacing: 0px ; background-color: rgb(248 , 249 , 250) ; display: inline ; float: none&quot;&gt;E&lt;/span&gt;&lt;sub style=&quot;color: rgb(0 , 0 , 0) ; font-family: &amp;#34;helvetica&amp;#34; ; font-style: normal ; font-weight: 400 ; letter-spacing: normal ; text-align: center ; text-indent: 0px ; text-transform: none ; word-spacing: 0px ; background-color: rgb(248 , 249 , 250)&quot;&gt;是&lt;/sub&gt;" style="rounded=0;whiteSpace=wrap;html=1;" vertex="1" parent="H1zRIuK2jRf7zOJqtdYD-1">
          <mxGeometry x="300" y="200" width="40" height="40" as="geometry" />
        </mxCell>
        <mxCell id="e81Prs7hUu-VgDcKT_vm-26" value="&lt;span style=&quot;color: rgb(0 , 0 , 0) ; font-family: &amp;#34;helvetica&amp;#34; ; font-size: 12px ; font-style: normal ; font-weight: 400 ; letter-spacing: normal ; text-align: center ; text-indent: 0px ; text-transform: none ; word-spacing: 0px ; background-color: rgb(248 , 249 , 250) ; display: inline ; float: none&quot;&gt;E&lt;/span&gt;&lt;span style=&quot;color: rgb(0 , 0 , 0) ; font-family: &amp;#34;helvetica&amp;#34; ; font-style: normal ; font-weight: 400 ; letter-spacing: normal ; text-align: center ; text-indent: 0px ; text-transform: none ; word-spacing: 0px ; background-color: rgb(248 , 249 , 250) ; display: inline ; float: none ; font-size: 6.94444px&quot;&gt;&lt;sub&gt;栈&lt;/sub&gt;&lt;/span&gt;" style="rounded=0;whiteSpace=wrap;html=1;" vertex="1" parent="H1zRIuK2jRf7zOJqtdYD-1">
          <mxGeometry x="250" y="200" width="40" height="40" as="geometry" />
        </mxCell>
        <mxCell id="e81Prs7hUu-VgDcKT_vm-27" value="E&lt;sub&gt;A&lt;/sub&gt;" style="rounded=0;whiteSpace=wrap;html=1;" vertex="1" parent="H1zRIuK2jRf7zOJqtdYD-1">
          <mxGeometry x="200" y="280" width="40" height="40" as="geometry" />
        </mxCell>
        <mxCell id="e81Prs7hUu-VgDcKT_vm-28" value="&lt;span&gt;E&lt;/span&gt;&lt;span style=&quot;font-size: 10px&quot;&gt;&lt;sub&gt;B&lt;/sub&gt;&lt;/span&gt;" style="rounded=0;whiteSpace=wrap;html=1;" vertex="1" parent="H1zRIuK2jRf7zOJqtdYD-1">
          <mxGeometry x="700" y="280" width="40" height="40" as="geometry" />
        </mxCell>
        <mxCell id="e81Prs7hUu-VgDcKT_vm-29" value="&lt;span&gt;E&lt;/span&gt;&lt;span style=&quot;font-size: 10px&quot;&gt;&lt;sub&gt;B&lt;/sub&gt;&lt;/span&gt;" style="rounded=0;whiteSpace=wrap;html=1;" vertex="1" parent="H1zRIuK2jRf7zOJqtdYD-1">
          <mxGeometry x="650" y="280" width="40" height="40" as="geometry" />
        </mxCell>
        <mxCell id="e81Prs7hUu-VgDcKT_vm-30" value="&lt;span&gt;E&lt;/span&gt;&lt;span style=&quot;font-size: 10px&quot;&gt;&lt;sub&gt;B&lt;/sub&gt;&lt;/span&gt;" style="rounded=0;whiteSpace=wrap;html=1;" vertex="1" parent="H1zRIuK2jRf7zOJqtdYD-1">
          <mxGeometry x="600" y="280" width="40" height="40" as="geometry" />
        </mxCell>
        <mxCell id="e81Prs7hUu-VgDcKT_vm-31" value="&lt;span&gt;E&lt;/span&gt;&lt;span style=&quot;font-size: 10px&quot;&gt;&lt;sub&gt;B&lt;/sub&gt;&lt;/span&gt;" style="rounded=0;whiteSpace=wrap;html=1;" vertex="1" parent="H1zRIuK2jRf7zOJqtdYD-1">
          <mxGeometry x="550" y="280" width="40" height="40" as="geometry" />
        </mxCell>
        <mxCell id="e81Prs7hUu-VgDcKT_vm-32" value="E&lt;span style=&quot;font-size: 10px&quot;&gt;&lt;sub&gt;B&lt;/sub&gt;&lt;/span&gt;" style="rounded=0;whiteSpace=wrap;html=1;" vertex="1" parent="H1zRIuK2jRf7zOJqtdYD-1">
          <mxGeometry x="500" y="280" width="40" height="40" as="geometry" />
        </mxCell>
        <mxCell id="e81Prs7hUu-VgDcKT_vm-33" value="&lt;span&gt;E&lt;/span&gt;&lt;sub&gt;A&lt;/sub&gt;" style="rounded=0;whiteSpace=wrap;html=1;" vertex="1" parent="H1zRIuK2jRf7zOJqtdYD-1">
          <mxGeometry x="450" y="280" width="40" height="40" as="geometry" />
        </mxCell>
        <mxCell id="e81Prs7hUu-VgDcKT_vm-34" value="&lt;span&gt;E&lt;/span&gt;&lt;sub&gt;A&lt;/sub&gt;" style="rounded=0;whiteSpace=wrap;html=1;" vertex="1" parent="H1zRIuK2jRf7zOJqtdYD-1">
          <mxGeometry x="400" y="280" width="40" height="40" as="geometry" />
        </mxCell>
        <mxCell id="e81Prs7hUu-VgDcKT_vm-35" value="&lt;span&gt;E&lt;/span&gt;&lt;sub&gt;A&lt;/sub&gt;" style="rounded=0;whiteSpace=wrap;html=1;" vertex="1" parent="H1zRIuK2jRf7zOJqtdYD-1">
          <mxGeometry x="350" y="280" width="40" height="40" as="geometry" />
        </mxCell>
        <mxCell id="e81Prs7hUu-VgDcKT_vm-36" value="&lt;span&gt;E&lt;/span&gt;&lt;sub&gt;A&lt;/sub&gt;" style="rounded=0;whiteSpace=wrap;html=1;" vertex="1" parent="H1zRIuK2jRf7zOJqtdYD-1">
          <mxGeometry x="300" y="280" width="40" height="40" as="geometry" />
        </mxCell>
        <mxCell id="e81Prs7hUu-VgDcKT_vm-37" value="&lt;span&gt;E&lt;/span&gt;&lt;sub&gt;A&lt;/sub&gt;" style="rounded=0;whiteSpace=wrap;html=1;" vertex="1" parent="H1zRIuK2jRf7zOJqtdYD-1">
          <mxGeometry x="250" y="280" width="40" height="40" as="geometry" />
        </mxCell>
        <mxCell id="e81Prs7hUu-VgDcKT_vm-38" value="E&lt;sub&gt;0&lt;/sub&gt;" style="rounded=0;whiteSpace=wrap;html=1;" vertex="1" parent="H1zRIuK2jRf7zOJqtdYD-1">
          <mxGeometry x="200" y="360" width="40" height="40" as="geometry" />
        </mxCell>
        <mxCell id="e81Prs7hUu-VgDcKT_vm-39" value="&lt;span&gt;E&lt;/span&gt;&lt;sub&gt;10&lt;/sub&gt;" style="rounded=0;whiteSpace=wrap;html=1;" vertex="1" parent="H1zRIuK2jRf7zOJqtdYD-1">
          <mxGeometry x="700" y="360" width="40" height="40" as="geometry" />
        </mxCell>
        <mxCell id="e81Prs7hUu-VgDcKT_vm-40" value="&lt;span&gt;E&lt;/span&gt;&lt;sub&gt;9&lt;/sub&gt;" style="rounded=0;whiteSpace=wrap;html=1;" vertex="1" parent="H1zRIuK2jRf7zOJqtdYD-1">
          <mxGeometry x="650" y="360" width="40" height="40" as="geometry" />
        </mxCell>
        <mxCell id="e81Prs7hUu-VgDcKT_vm-41" value="&lt;span&gt;E&lt;/span&gt;&lt;sub&gt;8&lt;/sub&gt;" style="rounded=0;whiteSpace=wrap;html=1;" vertex="1" parent="H1zRIuK2jRf7zOJqtdYD-1">
          <mxGeometry x="600" y="360" width="40" height="40" as="geometry" />
        </mxCell>
        <mxCell id="e81Prs7hUu-VgDcKT_vm-42" value="&lt;span&gt;E&lt;/span&gt;&lt;sub&gt;7&lt;/sub&gt;" style="rounded=0;whiteSpace=wrap;html=1;" vertex="1" parent="H1zRIuK2jRf7zOJqtdYD-1">
          <mxGeometry x="550" y="360" width="40" height="40" as="geometry" />
        </mxCell>
        <mxCell id="e81Prs7hUu-VgDcKT_vm-43" value="&lt;span&gt;E&lt;/span&gt;&lt;sub&gt;6&lt;/sub&gt;" style="rounded=0;whiteSpace=wrap;html=1;" vertex="1" parent="H1zRIuK2jRf7zOJqtdYD-1">
          <mxGeometry x="500" y="360" width="40" height="40" as="geometry" />
        </mxCell>
        <mxCell id="e81Prs7hUu-VgDcKT_vm-44" value="&lt;span&gt;E&lt;/span&gt;&lt;sub&gt;5&lt;/sub&gt;" style="rounded=0;whiteSpace=wrap;html=1;" vertex="1" parent="H1zRIuK2jRf7zOJqtdYD-1">
          <mxGeometry x="450" y="360" width="40" height="40" as="geometry" />
        </mxCell>
        <mxCell id="e81Prs7hUu-VgDcKT_vm-45" value="&lt;span&gt;E&lt;/span&gt;&lt;sub&gt;4&lt;/sub&gt;" style="rounded=0;whiteSpace=wrap;html=1;" vertex="1" parent="H1zRIuK2jRf7zOJqtdYD-1">
          <mxGeometry x="400" y="360" width="40" height="40" as="geometry" />
        </mxCell>
        <mxCell id="e81Prs7hUu-VgDcKT_vm-46" value="&lt;span&gt;E&lt;/span&gt;&lt;sub&gt;3&lt;/sub&gt;" style="rounded=0;whiteSpace=wrap;html=1;" vertex="1" parent="H1zRIuK2jRf7zOJqtdYD-1">
          <mxGeometry x="350" y="360" width="40" height="40" as="geometry" />
        </mxCell>
        <mxCell id="e81Prs7hUu-VgDcKT_vm-47" value="&lt;span style=&quot;color: rgb(0 , 0 , 0) ; font-family: &amp;#34;helvetica&amp;#34; ; font-size: 12px ; font-style: normal ; font-weight: 400 ; letter-spacing: normal ; text-align: center ; text-indent: 0px ; text-transform: none ; word-spacing: 0px ; background-color: rgb(248 , 249 , 250) ; display: inline ; float: none&quot;&gt;E&lt;/span&gt;&lt;sub style=&quot;color: rgb(0 , 0 , 0) ; font-family: &amp;#34;helvetica&amp;#34; ; font-style: normal ; font-weight: 400 ; letter-spacing: normal ; text-align: center ; text-indent: 0px ; text-transform: none ; word-spacing: 0px ; background-color: rgb(248 , 249 , 250)&quot;&gt;2&lt;/sub&gt;" style="rounded=0;whiteSpace=wrap;html=1;" vertex="1" parent="H1zRIuK2jRf7zOJqtdYD-1">
          <mxGeometry x="301" y="360" width="40" height="40" as="geometry" />
        </mxCell>
        <mxCell id="e81Prs7hUu-VgDcKT_vm-48" value="&lt;span&gt;E&lt;/span&gt;&lt;sub&gt;1&lt;/sub&gt;" style="rounded=0;whiteSpace=wrap;html=1;" vertex="1" parent="H1zRIuK2jRf7zOJqtdYD-1">
          <mxGeometry x="250" y="360" width="40" height="40" as="geometry" />
        </mxCell>
        <mxCell id="e81Prs7hUu-VgDcKT_vm-49" value="[CLS]" style="rounded=0;whiteSpace=wrap;html=1;" vertex="1" parent="H1zRIuK2jRf7zOJqtdYD-1">
          <mxGeometry x="200" y="80" width="40" height="40" as="geometry" />
        </mxCell>
        <mxCell id="e81Prs7hUu-VgDcKT_vm-50" value="[SEP]" style="rounded=0;whiteSpace=wrap;html=1;" vertex="1" parent="H1zRIuK2jRf7zOJqtdYD-1">
          <mxGeometry x="700" y="80" width="40" height="40" as="geometry" />
        </mxCell>
        <mxCell id="e81Prs7hUu-VgDcKT_vm-51" value="&lt;span&gt;现&lt;/span&gt;" style="rounded=0;whiteSpace=wrap;html=1;" vertex="1" parent="H1zRIuK2jRf7zOJqtdYD-1">
          <mxGeometry x="650" y="80" width="40" height="40" as="geometry" />
        </mxCell>
        <mxCell id="e81Prs7hUu-VgDcKT_vm-52" value="实" style="rounded=0;whiteSpace=wrap;html=1;" vertex="1" parent="H1zRIuK2jRf7zOJqtdYD-1">
          <mxGeometry x="600" y="80" width="40" height="40" as="geometry" />
        </mxCell>
        <mxCell id="e81Prs7hUu-VgDcKT_vm-53" value="么" style="rounded=0;whiteSpace=wrap;html=1;" vertex="1" parent="H1zRIuK2jRf7zOJqtdYD-1">
          <mxGeometry x="550" y="80" width="40" height="40" as="geometry" />
        </mxCell>
        <mxCell id="e81Prs7hUu-VgDcKT_vm-54" value="怎" style="rounded=0;whiteSpace=wrap;html=1;" vertex="1" parent="H1zRIuK2jRf7zOJqtdYD-1">
          <mxGeometry x="500" y="80" width="40" height="40" as="geometry" />
        </mxCell>
        <mxCell id="e81Prs7hUu-VgDcKT_vm-55" value="[SEP]" style="rounded=0;whiteSpace=wrap;html=1;" vertex="1" parent="H1zRIuK2jRf7zOJqtdYD-1">
          <mxGeometry x="450" y="80" width="40" height="40" as="geometry" />
        </mxCell>
        <mxCell id="e81Prs7hUu-VgDcKT_vm-56" value="么" style="rounded=0;whiteSpace=wrap;html=1;" vertex="1" parent="H1zRIuK2jRf7zOJqtdYD-1">
          <mxGeometry x="400" y="80" width="40" height="40" as="geometry" />
        </mxCell>
        <mxCell id="e81Prs7hUu-VgDcKT_vm-57" value="什" style="rounded=0;whiteSpace=wrap;html=1;" vertex="1" parent="H1zRIuK2jRf7zOJqtdYD-1">
          <mxGeometry x="350" y="80" width="40" height="40" as="geometry" />
        </mxCell>
        <mxCell id="e81Prs7hUu-VgDcKT_vm-58" value="是" style="rounded=0;whiteSpace=wrap;html=1;" vertex="1" parent="H1zRIuK2jRf7zOJqtdYD-1">
          <mxGeometry x="300" y="80" width="40" height="40" as="geometry" />
        </mxCell>
        <mxCell id="e81Prs7hUu-VgDcKT_vm-59" value="栈" style="rounded=0;whiteSpace=wrap;html=1;" vertex="1" parent="H1zRIuK2jRf7zOJqtdYD-1">
          <mxGeometry x="250" y="80" width="40" height="40" as="geometry" />
        </mxCell>
        <mxCell id="e81Prs7hUu-VgDcKT_vm-60" value="" style="shape=mxgraph.bpmn.shape;html=1;verticalLabelPosition=bottom;labelBackgroundColor=#ffffff;verticalAlign=top;align=center;perimeter=ellipsePerimeter;outlineConnect=0;outline=standard;symbol=parallelMultiple;" vertex="1" parent="H1zRIuK2jRf7zOJqtdYD-1">
          <mxGeometry x="210" y="250" width="20" height="20" as="geometry" />
        </mxCell>
        <mxCell id="e81Prs7hUu-VgDcKT_vm-61" value="" style="shape=mxgraph.bpmn.shape;html=1;verticalLabelPosition=bottom;labelBackgroundColor=#ffffff;verticalAlign=top;align=center;perimeter=ellipsePerimeter;outlineConnect=0;outline=standard;symbol=parallelMultiple;" vertex="1" parent="H1zRIuK2jRf7zOJqtdYD-1">
          <mxGeometry x="260" y="250" width="20" height="20" as="geometry" />
        </mxCell>
        <mxCell id="e81Prs7hUu-VgDcKT_vm-63" value="" style="shape=mxgraph.bpmn.shape;html=1;verticalLabelPosition=bottom;labelBackgroundColor=#ffffff;verticalAlign=top;align=center;perimeter=ellipsePerimeter;outlineConnect=0;outline=standard;symbol=parallelMultiple;" vertex="1" parent="H1zRIuK2jRf7zOJqtdYD-1">
          <mxGeometry x="310" y="250" width="20" height="20" as="geometry" />
        </mxCell>
        <mxCell id="e81Prs7hUu-VgDcKT_vm-64" value="" style="shape=mxgraph.bpmn.shape;html=1;verticalLabelPosition=bottom;labelBackgroundColor=#ffffff;verticalAlign=top;align=center;perimeter=ellipsePerimeter;outlineConnect=0;outline=standard;symbol=parallelMultiple;" vertex="1" parent="H1zRIuK2jRf7zOJqtdYD-1">
          <mxGeometry x="360" y="250" width="20" height="20" as="geometry" />
        </mxCell>
        <mxCell id="e81Prs7hUu-VgDcKT_vm-65" value="" style="shape=mxgraph.bpmn.shape;html=1;verticalLabelPosition=bottom;labelBackgroundColor=#ffffff;verticalAlign=top;align=center;perimeter=ellipsePerimeter;outlineConnect=0;outline=standard;symbol=parallelMultiple;" vertex="1" parent="H1zRIuK2jRf7zOJqtdYD-1">
          <mxGeometry x="410" y="250" width="20" height="20" as="geometry" />
        </mxCell>
        <mxCell id="e81Prs7hUu-VgDcKT_vm-66" value="" style="shape=mxgraph.bpmn.shape;html=1;verticalLabelPosition=bottom;labelBackgroundColor=#ffffff;verticalAlign=top;align=center;perimeter=ellipsePerimeter;outlineConnect=0;outline=standard;symbol=parallelMultiple;" vertex="1" parent="H1zRIuK2jRf7zOJqtdYD-1">
          <mxGeometry x="460" y="250" width="20" height="20" as="geometry" />
        </mxCell>
        <mxCell id="e81Prs7hUu-VgDcKT_vm-67" value="" style="shape=mxgraph.bpmn.shape;html=1;verticalLabelPosition=bottom;labelBackgroundColor=#ffffff;verticalAlign=top;align=center;perimeter=ellipsePerimeter;outlineConnect=0;outline=standard;symbol=parallelMultiple;" vertex="1" parent="H1zRIuK2jRf7zOJqtdYD-1">
          <mxGeometry x="510" y="250" width="20" height="20" as="geometry" />
        </mxCell>
        <mxCell id="e81Prs7hUu-VgDcKT_vm-68" value="" style="shape=mxgraph.bpmn.shape;html=1;verticalLabelPosition=bottom;labelBackgroundColor=#ffffff;verticalAlign=top;align=center;perimeter=ellipsePerimeter;outlineConnect=0;outline=standard;symbol=parallelMultiple;" vertex="1" parent="H1zRIuK2jRf7zOJqtdYD-1">
          <mxGeometry x="560" y="250" width="20" height="20" as="geometry" />
        </mxCell>
        <mxCell id="e81Prs7hUu-VgDcKT_vm-69" value="" style="shape=mxgraph.bpmn.shape;html=1;verticalLabelPosition=bottom;labelBackgroundColor=#ffffff;verticalAlign=top;align=center;perimeter=ellipsePerimeter;outlineConnect=0;outline=standard;symbol=parallelMultiple;" vertex="1" parent="H1zRIuK2jRf7zOJqtdYD-1">
          <mxGeometry x="610" y="250" width="20" height="20" as="geometry" />
        </mxCell>
        <mxCell id="e81Prs7hUu-VgDcKT_vm-70" value="" style="shape=mxgraph.bpmn.shape;html=1;verticalLabelPosition=bottom;labelBackgroundColor=#ffffff;verticalAlign=top;align=center;perimeter=ellipsePerimeter;outlineConnect=0;outline=standard;symbol=parallelMultiple;" vertex="1" parent="H1zRIuK2jRf7zOJqtdYD-1">
          <mxGeometry x="660" y="250" width="20" height="20" as="geometry" />
        </mxCell>
        <mxCell id="e81Prs7hUu-VgDcKT_vm-71" value="" style="shape=mxgraph.bpmn.shape;html=1;verticalLabelPosition=bottom;labelBackgroundColor=#ffffff;verticalAlign=top;align=center;perimeter=ellipsePerimeter;outlineConnect=0;outline=standard;symbol=parallelMultiple;" vertex="1" parent="H1zRIuK2jRf7zOJqtdYD-1">
          <mxGeometry x="710" y="250" width="20" height="20" as="geometry" />
        </mxCell>
        <mxCell id="e81Prs7hUu-VgDcKT_vm-73" value="" style="shape=mxgraph.bpmn.shape;html=1;verticalLabelPosition=bottom;labelBackgroundColor=#ffffff;verticalAlign=top;align=center;perimeter=ellipsePerimeter;outlineConnect=0;outline=standard;symbol=parallelMultiple;" vertex="1" parent="H1zRIuK2jRf7zOJqtdYD-1">
          <mxGeometry x="210" y="330" width="20" height="20" as="geometry" />
        </mxCell>
        <mxCell id="e81Prs7hUu-VgDcKT_vm-74" value="" style="shape=mxgraph.bpmn.shape;html=1;verticalLabelPosition=bottom;labelBackgroundColor=#ffffff;verticalAlign=top;align=center;perimeter=ellipsePerimeter;outlineConnect=0;outline=standard;symbol=parallelMultiple;" vertex="1" parent="H1zRIuK2jRf7zOJqtdYD-1">
          <mxGeometry x="260" y="330" width="20" height="20" as="geometry" />
        </mxCell>
        <mxCell id="e81Prs7hUu-VgDcKT_vm-75" value="" style="shape=mxgraph.bpmn.shape;html=1;verticalLabelPosition=bottom;labelBackgroundColor=#ffffff;verticalAlign=top;align=center;perimeter=ellipsePerimeter;outlineConnect=0;outline=standard;symbol=parallelMultiple;" vertex="1" parent="H1zRIuK2jRf7zOJqtdYD-1">
          <mxGeometry x="310" y="330" width="20" height="20" as="geometry" />
        </mxCell>
        <mxCell id="e81Prs7hUu-VgDcKT_vm-76" value="" style="shape=mxgraph.bpmn.shape;html=1;verticalLabelPosition=bottom;labelBackgroundColor=#ffffff;verticalAlign=top;align=center;perimeter=ellipsePerimeter;outlineConnect=0;outline=standard;symbol=parallelMultiple;" vertex="1" parent="H1zRIuK2jRf7zOJqtdYD-1">
          <mxGeometry x="360" y="330" width="20" height="20" as="geometry" />
        </mxCell>
        <mxCell id="e81Prs7hUu-VgDcKT_vm-77" value="" style="shape=mxgraph.bpmn.shape;html=1;verticalLabelPosition=bottom;labelBackgroundColor=#ffffff;verticalAlign=top;align=center;perimeter=ellipsePerimeter;outlineConnect=0;outline=standard;symbol=parallelMultiple;" vertex="1" parent="H1zRIuK2jRf7zOJqtdYD-1">
          <mxGeometry x="410" y="330" width="20" height="20" as="geometry" />
        </mxCell>
        <mxCell id="e81Prs7hUu-VgDcKT_vm-78" value="" style="shape=mxgraph.bpmn.shape;html=1;verticalLabelPosition=bottom;labelBackgroundColor=#ffffff;verticalAlign=top;align=center;perimeter=ellipsePerimeter;outlineConnect=0;outline=standard;symbol=parallelMultiple;" vertex="1" parent="H1zRIuK2jRf7zOJqtdYD-1">
          <mxGeometry x="460" y="330" width="20" height="20" as="geometry" />
        </mxCell>
        <mxCell id="e81Prs7hUu-VgDcKT_vm-79" value="" style="shape=mxgraph.bpmn.shape;html=1;verticalLabelPosition=bottom;labelBackgroundColor=#ffffff;verticalAlign=top;align=center;perimeter=ellipsePerimeter;outlineConnect=0;outline=standard;symbol=parallelMultiple;" vertex="1" parent="H1zRIuK2jRf7zOJqtdYD-1">
          <mxGeometry x="510" y="330" width="20" height="20" as="geometry" />
        </mxCell>
        <mxCell id="e81Prs7hUu-VgDcKT_vm-80" value="" style="shape=mxgraph.bpmn.shape;html=1;verticalLabelPosition=bottom;labelBackgroundColor=#ffffff;verticalAlign=top;align=center;perimeter=ellipsePerimeter;outlineConnect=0;outline=standard;symbol=parallelMultiple;" vertex="1" parent="H1zRIuK2jRf7zOJqtdYD-1">
          <mxGeometry x="560" y="330" width="20" height="20" as="geometry" />
        </mxCell>
        <mxCell id="e81Prs7hUu-VgDcKT_vm-81" value="" style="shape=mxgraph.bpmn.shape;html=1;verticalLabelPosition=bottom;labelBackgroundColor=#ffffff;verticalAlign=top;align=center;perimeter=ellipsePerimeter;outlineConnect=0;outline=standard;symbol=parallelMultiple;" vertex="1" parent="H1zRIuK2jRf7zOJqtdYD-1">
          <mxGeometry x="610" y="330" width="20" height="20" as="geometry" />
        </mxCell>
        <mxCell id="e81Prs7hUu-VgDcKT_vm-82" value="" style="shape=mxgraph.bpmn.shape;html=1;verticalLabelPosition=bottom;labelBackgroundColor=#ffffff;verticalAlign=top;align=center;perimeter=ellipsePerimeter;outlineConnect=0;outline=standard;symbol=parallelMultiple;" vertex="1" parent="H1zRIuK2jRf7zOJqtdYD-1">
          <mxGeometry x="660" y="330" width="20" height="20" as="geometry" />
        </mxCell>
        <mxCell id="e81Prs7hUu-VgDcKT_vm-83" value="" style="shape=mxgraph.bpmn.shape;html=1;verticalLabelPosition=bottom;labelBackgroundColor=#ffffff;verticalAlign=top;align=center;perimeter=ellipsePerimeter;outlineConnect=0;outline=standard;symbol=parallelMultiple;" vertex="1" parent="H1zRIuK2jRf7zOJqtdYD-1">
          <mxGeometry x="710" y="330" width="20" height="20" as="geometry" />
        </mxCell>
        <mxCell id="e81Prs7hUu-VgDcKT_vm-84" value="Token Embeddings&lt;br&gt;" style="text;html=1;strokeColor=none;fillColor=none;align=center;verticalAlign=middle;whiteSpace=wrap;rounded=0;" vertex="1" parent="H1zRIuK2jRf7zOJqtdYD-1">
          <mxGeometry x="50" y="210" width="40" height="20" as="geometry" />
        </mxCell>
        <mxCell id="e81Prs7hUu-VgDcKT_vm-85" value="Segment Embeddings" style="text;html=1;strokeColor=none;fillColor=none;align=center;verticalAlign=middle;whiteSpace=wrap;rounded=0;" vertex="1" parent="H1zRIuK2jRf7zOJqtdYD-1">
          <mxGeometry x="50" y="290" width="40" height="20" as="geometry" />
        </mxCell>
        <mxCell id="e81Prs7hUu-VgDcKT_vm-86" value="Position&lt;br&gt;Embeddings" style="text;html=1;strokeColor=none;fillColor=none;align=center;verticalAlign=middle;whiteSpace=wrap;rounded=0;" vertex="1" parent="H1zRIuK2jRf7zOJqtdYD-1">
          <mxGeometry x="50" y="370" width="40" height="20" as="geometry" />
        </mxCell>
        <mxCell id="e81Prs7hUu-VgDcKT_vm-88" value="input" style="text;html=1;strokeColor=none;fillColor=none;align=center;verticalAlign=middle;whiteSpace=wrap;rounded=0;" vertex="1" parent="H1zRIuK2jRf7zOJqtdYD-1">
          <mxGeometry x="50" y="90" width="40" height="20" as="geometry" />
        </mxCell>
      </root>
    </mxGraphModel>
  </diagram>
  <diagram id="MJwKbucmOUKsL2--ajhz" name="Page-4">
    <mxGraphModel dx="1496" dy="604" grid="1" gridSize="10" guides="1" tooltips="1" connect="1" arrows="1" fold="1" page="1" pageScale="1" pageWidth="827" pageHeight="1169" math="0" shadow="0">
      <root>
        <mxCell id="jDqg1KMOkx995O270ZuZ-0" />
        <mxCell id="jDqg1KMOkx995O270ZuZ-1" parent="jDqg1KMOkx995O270ZuZ-0" />
        <mxCell id="_p-TefJQf1fhsmr6VLUm-0" value="" style="rounded=1;whiteSpace=wrap;html=1;strokeColor=#000000;" vertex="1" parent="jDqg1KMOkx995O270ZuZ-1">
          <mxGeometry x="350" y="80" width="190" height="220" as="geometry" />
        </mxCell>
        <mxCell id="_p-TefJQf1fhsmr6VLUm-1" value="Input&lt;br&gt;Embedding" style="rounded=0;whiteSpace=wrap;html=1;strokeColor=#000000;" vertex="1" parent="jDqg1KMOkx995O270ZuZ-1">
          <mxGeometry x="385" y="360" width="120" height="60" as="geometry" />
        </mxCell>
        <mxCell id="_p-TefJQf1fhsmr6VLUm-2" value="" style="shape=mxgraph.bpmn.shape;html=1;verticalLabelPosition=bottom;labelBackgroundColor=#ffffff;verticalAlign=top;align=center;perimeter=ellipsePerimeter;outlineConnect=0;outline=standard;symbol=parallelMultiple;strokeColor=#000000;" vertex="1" parent="jDqg1KMOkx995O270ZuZ-1">
          <mxGeometry x="430" y="320" width="20" height="20" as="geometry" />
        </mxCell>
        <mxCell id="_p-TefJQf1fhsmr6VLUm-3" value="" style="shape=lineEllipse;perimeter=ellipsePerimeter;whiteSpace=wrap;html=1;backgroundOutline=1;strokeColor=#000000;" vertex="1" parent="jDqg1KMOkx995O270ZuZ-1">
          <mxGeometry x="365" y="320" width="20" height="20" as="geometry" />
        </mxCell>
        <mxCell id="_p-TefJQf1fhsmr6VLUm-4" value="Positional Encoding" style="text;html=1;align=center;verticalAlign=middle;resizable=0;points=[];autosize=1;" vertex="1" parent="jDqg1KMOkx995O270ZuZ-1">
          <mxGeometry x="240" y="320" width="120" height="20" as="geometry" />
        </mxCell>
        <mxCell id="_p-TefJQf1fhsmr6VLUm-5" value="" style="endArrow=none;html=1;strokeWidth=1;exitX=1;exitY=0.5;exitDx=0;exitDy=0;entryX=0;entryY=0.5;entryDx=0;entryDy=0;" edge="1" parent="jDqg1KMOkx995O270ZuZ-1" source="_p-TefJQf1fhsmr6VLUm-3" target="_p-TefJQf1fhsmr6VLUm-2">
          <mxGeometry width="50" height="50" relative="1" as="geometry">
            <mxPoint x="460" y="330" as="sourcePoint" />
            <mxPoint x="510" y="280" as="targetPoint" />
          </mxGeometry>
        </mxCell>
        <mxCell id="_p-TefJQf1fhsmr6VLUm-10" value="Add &amp;amp; Norm" style="rounded=0;whiteSpace=wrap;html=1;strokeColor=#000000;" vertex="1" parent="jDqg1KMOkx995O270ZuZ-1">
          <mxGeometry x="405" y="100" width="70" height="20" as="geometry" />
        </mxCell>
        <mxCell id="_p-TefJQf1fhsmr6VLUm-11" value="Multi-Head&lt;br&gt;Attention" style="rounded=0;whiteSpace=wrap;html=1;strokeColor=#000000;" vertex="1" parent="jDqg1KMOkx995O270ZuZ-1">
          <mxGeometry x="405" y="210" width="70" height="30" as="geometry" />
        </mxCell>
        <mxCell id="_p-TefJQf1fhsmr6VLUm-12" value="Add &amp;amp; Norm" style="rounded=0;whiteSpace=wrap;html=1;strokeColor=#000000;" vertex="1" parent="jDqg1KMOkx995O270ZuZ-1">
          <mxGeometry x="405" y="180" width="70" height="20" as="geometry" />
        </mxCell>
        <mxCell id="_p-TefJQf1fhsmr6VLUm-13" value="Feed&lt;br&gt;Forward" style="rounded=0;whiteSpace=wrap;html=1;strokeColor=#000000;" vertex="1" parent="jDqg1KMOkx995O270ZuZ-1">
          <mxGeometry x="405" y="130" width="70" height="30" as="geometry" />
        </mxCell>
        <mxCell id="_p-TefJQf1fhsmr6VLUm-15" value="" style="endArrow=classic;html=1;strokeColor=#000000;strokeWidth=1;exitX=0.5;exitY=0;exitDx=0;exitDy=0;entryX=0.5;entryY=1;entryDx=0;entryDy=0;" edge="1" parent="jDqg1KMOkx995O270ZuZ-1" source="_p-TefJQf1fhsmr6VLUm-2" target="_p-TefJQf1fhsmr6VLUm-11">
          <mxGeometry width="50" height="50" relative="1" as="geometry">
            <mxPoint x="510" y="220" as="sourcePoint" />
            <mxPoint x="560" y="170" as="targetPoint" />
          </mxGeometry>
        </mxCell>
        <mxCell id="_p-TefJQf1fhsmr6VLUm-16" value="" style="endArrow=none;html=1;strokeColor=#000000;strokeWidth=1;exitX=0.5;exitY=0;exitDx=0;exitDy=0;entryX=0.5;entryY=1;entryDx=0;entryDy=0;" edge="1" parent="jDqg1KMOkx995O270ZuZ-1" source="_p-TefJQf1fhsmr6VLUm-11" target="_p-TefJQf1fhsmr6VLUm-12">
          <mxGeometry width="50" height="50" relative="1" as="geometry">
            <mxPoint x="510" y="320" as="sourcePoint" />
            <mxPoint x="560" y="270" as="targetPoint" />
          </mxGeometry>
        </mxCell>
        <mxCell id="_p-TefJQf1fhsmr6VLUm-17" value="" style="endArrow=classic;html=1;strokeColor=#000000;strokeWidth=1;entryX=0.5;entryY=1;entryDx=0;entryDy=0;" edge="1" parent="jDqg1KMOkx995O270ZuZ-1" target="_p-TefJQf1fhsmr6VLUm-2">
          <mxGeometry width="50" height="50" relative="1" as="geometry">
            <mxPoint x="440" y="360" as="sourcePoint" />
            <mxPoint x="550" y="340" as="targetPoint" />
          </mxGeometry>
        </mxCell>
        <mxCell id="_p-TefJQf1fhsmr6VLUm-19" value="" style="endArrow=none;html=1;strokeColor=#000000;strokeWidth=1;exitX=0.5;exitY=0;exitDx=0;exitDy=0;entryX=0.5;entryY=1;entryDx=0;entryDy=0;" edge="1" parent="jDqg1KMOkx995O270ZuZ-1" source="_p-TefJQf1fhsmr6VLUm-13" target="_p-TefJQf1fhsmr6VLUm-10">
          <mxGeometry width="50" height="50" relative="1" as="geometry">
            <mxPoint x="510" y="270" as="sourcePoint" />
            <mxPoint x="560" y="220" as="targetPoint" />
          </mxGeometry>
        </mxCell>
        <mxCell id="_p-TefJQf1fhsmr6VLUm-24" value="" style="endArrow=classic;html=1;strokeColor=#000000;strokeWidth=1;entryX=0.107;entryY=1.014;entryDx=0;entryDy=0;entryPerimeter=0;" edge="1" parent="jDqg1KMOkx995O270ZuZ-1" target="_p-TefJQf1fhsmr6VLUm-11">
          <mxGeometry width="50" height="50" relative="1" as="geometry">
            <mxPoint x="440" y="280" as="sourcePoint" />
            <mxPoint x="560" y="220" as="targetPoint" />
            <Array as="points">
              <mxPoint x="412" y="280" />
            </Array>
          </mxGeometry>
        </mxCell>
        <mxCell id="_p-TefJQf1fhsmr6VLUm-27" value="" style="endArrow=classic;html=1;strokeColor=#000000;strokeWidth=1;entryX=0.866;entryY=0.991;entryDx=0;entryDy=0;entryPerimeter=0;" edge="1" parent="jDqg1KMOkx995O270ZuZ-1" target="_p-TefJQf1fhsmr6VLUm-11">
          <mxGeometry width="50" height="50" relative="1" as="geometry">
            <mxPoint x="440" y="280" as="sourcePoint" />
            <mxPoint x="560" y="220" as="targetPoint" />
            <Array as="points">
              <mxPoint x="466" y="280" />
            </Array>
          </mxGeometry>
        </mxCell>
        <mxCell id="_p-TefJQf1fhsmr6VLUm-28" value="" style="endArrow=classic;html=1;strokeColor=#000000;strokeWidth=1;entryX=0;entryY=0.5;entryDx=0;entryDy=0;" edge="1" parent="jDqg1KMOkx995O270ZuZ-1" target="_p-TefJQf1fhsmr6VLUm-12">
          <mxGeometry width="50" height="50" relative="1" as="geometry">
            <mxPoint x="440" y="290" as="sourcePoint" />
            <mxPoint x="560" y="220" as="targetPoint" />
            <Array as="points">
              <mxPoint x="370" y="290" />
              <mxPoint x="370" y="190" />
            </Array>
          </mxGeometry>
        </mxCell>
        <mxCell id="_p-TefJQf1fhsmr6VLUm-31" value="" style="endArrow=classic;html=1;strokeColor=#000000;strokeWidth=1;exitX=0.5;exitY=0;exitDx=0;exitDy=0;entryX=0.5;entryY=1;entryDx=0;entryDy=0;" edge="1" parent="jDqg1KMOkx995O270ZuZ-1" source="_p-TefJQf1fhsmr6VLUm-12" target="_p-TefJQf1fhsmr6VLUm-13">
          <mxGeometry width="50" height="50" relative="1" as="geometry">
            <mxPoint x="510" y="210" as="sourcePoint" />
            <mxPoint x="560" y="160" as="targetPoint" />
          </mxGeometry>
        </mxCell>
        <mxCell id="_p-TefJQf1fhsmr6VLUm-32" value="" style="endArrow=classic;html=1;strokeColor=#000000;strokeWidth=1;exitX=0.5;exitY=0;exitDx=0;exitDy=0;" edge="1" parent="jDqg1KMOkx995O270ZuZ-1" source="_p-TefJQf1fhsmr6VLUm-10">
          <mxGeometry width="50" height="50" relative="1" as="geometry">
            <mxPoint x="510" y="210" as="sourcePoint" />
            <mxPoint x="440" y="40" as="targetPoint" />
          </mxGeometry>
        </mxCell>
        <mxCell id="_p-TefJQf1fhsmr6VLUm-33" value="" style="endArrow=classic;html=1;strokeColor=#000000;strokeWidth=1;entryX=0;entryY=0.25;entryDx=0;entryDy=0;" edge="1" parent="jDqg1KMOkx995O270ZuZ-1" target="_p-TefJQf1fhsmr6VLUm-10">
          <mxGeometry width="50" height="50" relative="1" as="geometry">
            <mxPoint x="440" y="170" as="sourcePoint" />
            <mxPoint x="560" y="160" as="targetPoint" />
            <Array as="points">
              <mxPoint x="390" y="170" />
              <mxPoint x="390" y="105" />
            </Array>
          </mxGeometry>
        </mxCell>
        <mxCell id="_p-TefJQf1fhsmr6VLUm-34" value="" style="endArrow=classic;html=1;strokeColor=#000000;strokeWidth=1;entryX=0.447;entryY=1.03;entryDx=0;entryDy=0;entryPerimeter=0;" edge="1" parent="jDqg1KMOkx995O270ZuZ-1" target="_p-TefJQf1fhsmr6VLUm-1">
          <mxGeometry width="50" height="50" relative="1" as="geometry">
            <mxPoint x="439" y="450" as="sourcePoint" />
            <mxPoint x="560" y="290" as="targetPoint" />
          </mxGeometry>
        </mxCell>
        <mxCell id="_p-TefJQf1fhsmr6VLUm-35" value="Inputs" style="text;html=1;align=center;verticalAlign=middle;resizable=0;points=[];autosize=1;" vertex="1" parent="jDqg1KMOkx995O270ZuZ-1">
          <mxGeometry x="415" y="450" width="50" height="20" as="geometry" />
        </mxCell>
      </root>
    </mxGraphModel>
  </diagram>
</mxfile>
